<svg xmlns="http://www.w3.org/2000/svg" xmlns:xlink="http://www.w3.org/1999/xlink" width="800" zoomAndPan="magnify" viewBox="0 0 600 449.999984" height="600" preserveAspectRatio="xMidYMid meet" version="1.0"><defs><clipPath id="d308f1265c"><path d="M 75 0 L 524 0 L 524 450 L 75 450 Z M 75 0 " clip-rule="nonzero"/></clipPath><clipPath id="81dbd8041e"><path d="M 146.925781 -0.574219 L 451.148438 -0.574219 C 452.339844 -0.574219 453.527344 -0.542969 454.710938 -0.484375 C 455.898438 -0.425781 457.082031 -0.339844 458.265625 -0.222656 C 459.449219 -0.109375 460.628906 0.0390625 461.800781 0.210938 C 462.976562 0.386719 464.148438 0.589844 465.3125 0.820312 C 466.480469 1.050781 467.636719 1.3125 468.789062 1.597656 C 469.941406 1.886719 471.085938 2.203125 472.222656 2.546875 C 473.359375 2.890625 474.488281 3.265625 475.609375 3.664062 C 476.726562 4.0625 477.835938 4.492188 478.933594 4.945312 C 480.03125 5.398438 481.117188 5.878906 482.191406 6.386719 C 483.265625 6.894531 484.324219 7.425781 485.371094 7.984375 C 486.421875 8.542969 487.453125 9.128906 488.472656 9.738281 C 489.492188 10.347656 490.496094 10.984375 491.484375 11.640625 C 492.472656 12.300781 493.441406 12.984375 494.398438 13.691406 C 495.351562 14.398438 496.289062 15.128906 497.207031 15.878906 C 498.125 16.632812 499.023438 17.40625 499.90625 18.203125 C 500.785156 19 501.644531 19.816406 502.484375 20.65625 C 503.324219 21.496094 504.144531 22.355469 504.941406 23.234375 C 505.738281 24.113281 506.515625 25.011719 507.269531 25.925781 C 508.023438 26.84375 508.753906 27.777344 509.460938 28.730469 C 510.167969 29.683594 510.851562 30.652344 511.511719 31.640625 C 512.171875 32.625 512.808594 33.628906 513.417969 34.644531 C 514.03125 35.664062 514.617188 36.695312 515.175781 37.742188 C 515.738281 38.789062 516.269531 39.847656 516.777344 40.917969 C 517.285156 41.992188 517.769531 43.074219 518.222656 44.171875 C 518.675781 45.265625 519.105469 46.375 519.503906 47.492188 C 519.90625 48.605469 520.277344 49.734375 520.621094 50.867188 C 520.96875 52.003906 521.285156 53.144531 521.574219 54.296875 C 521.863281 55.449219 522.121094 56.605469 522.355469 57.769531 C 522.585938 58.933594 522.789062 60.101562 522.960938 61.273438 C 523.136719 62.445312 523.28125 63.625 523.398438 64.804688 C 523.515625 65.984375 523.601562 67.167969 523.660156 68.351562 C 523.71875 69.539062 523.75 70.722656 523.75 71.910156 L 523.75 377.503906 C 523.75 378.691406 523.71875 379.875 523.660156 381.0625 C 523.601562 382.246094 523.515625 383.429688 523.398438 384.609375 C 523.28125 385.789062 523.136719 386.964844 522.960938 388.140625 C 522.789062 389.3125 522.585938 390.480469 522.355469 391.644531 C 522.121094 392.808594 521.863281 393.964844 521.574219 395.117188 C 521.285156 396.265625 520.96875 397.410156 520.621094 398.542969 C 520.277344 399.679688 519.90625 400.804688 519.503906 401.921875 C 519.105469 403.039062 518.675781 404.144531 518.222656 405.242188 C 517.769531 406.339844 517.285156 407.421875 516.777344 408.496094 C 516.269531 409.566406 515.738281 410.625 515.175781 411.671875 C 514.617188 412.71875 514.03125 413.75 513.421875 414.769531 C 512.808594 415.785156 512.171875 416.785156 511.511719 417.773438 C 510.851562 418.757812 510.167969 419.730469 509.460938 420.683594 C 508.753906 421.636719 508.023438 422.570312 507.269531 423.488281 C 506.515625 424.402344 505.738281 425.300781 504.941406 426.179688 C 504.144531 427.058594 503.324219 427.917969 502.484375 428.757812 C 501.644531 429.597656 500.785156 430.414062 499.902344 431.210938 C 499.023438 432.007812 498.125 432.78125 497.207031 433.535156 C 496.289062 434.285156 495.351562 435.015625 494.398438 435.722656 C 493.441406 436.429688 492.472656 437.113281 491.484375 437.769531 C 490.496094 438.429688 489.492188 439.0625 488.472656 439.675781 C 487.453125 440.285156 486.421875 440.867188 485.371094 441.429688 C 484.324219 441.988281 483.265625 442.519531 482.191406 443.027344 C 481.117188 443.535156 480.03125 444.015625 478.933594 444.46875 C 477.835938 444.921875 476.726562 445.351562 475.609375 445.75 C 474.488281 446.148438 473.363281 446.519531 472.222656 446.863281 C 471.085938 447.210938 469.941406 447.527344 468.789062 447.8125 C 467.636719 448.101562 466.480469 448.363281 465.3125 448.59375 C 464.148438 448.824219 462.976562 449.027344 461.800781 449.203125 C 460.628906 449.375 459.449219 449.519531 458.265625 449.636719 C 457.082031 449.753906 455.898438 449.839844 454.710938 449.898438 C 453.527344 449.957031 452.339844 449.988281 451.148438 449.988281 L 146.925781 449.988281 C 145.738281 449.988281 144.550781 449.957031 143.363281 449.898438 C 142.175781 449.839844 140.992188 449.753906 139.808594 449.636719 C 138.625 449.519531 137.449219 449.375 136.273438 449.203125 C 135.097656 449.027344 133.925781 448.824219 132.761719 448.59375 C 131.597656 448.363281 130.4375 448.101562 129.285156 447.8125 C 128.132812 447.527344 126.988281 447.210938 125.851562 446.867188 C 124.714844 446.519531 123.585938 446.148438 122.46875 445.75 C 121.347656 445.351562 120.242188 444.921875 119.144531 444.46875 C 118.042969 444.015625 116.960938 443.535156 115.886719 443.027344 C 114.8125 442.519531 113.75 441.988281 112.703125 441.429688 C 111.65625 440.867188 110.621094 440.285156 109.601562 439.675781 C 108.582031 439.066406 107.578125 438.429688 106.589844 437.769531 C 105.601562 437.113281 104.632812 436.429688 103.679688 435.722656 C 102.722656 435.015625 101.789062 434.285156 100.867188 433.535156 C 99.949219 432.78125 99.050781 432.007812 98.171875 431.210938 C 97.289062 430.414062 96.429688 429.597656 95.589844 428.757812 C 94.75 427.917969 93.929688 427.058594 93.132812 426.179688 C 92.335938 425.300781 91.558594 424.402344 90.804688 423.488281 C 90.050781 422.570312 89.320312 421.636719 88.613281 420.683594 C 87.90625 419.730469 87.222656 418.757812 86.5625 417.773438 C 85.902344 416.785156 85.265625 415.785156 84.65625 414.769531 C 84.042969 413.75 83.457031 412.71875 82.898438 411.671875 C 82.339844 410.625 81.804688 409.566406 81.296875 408.492188 C 80.789062 407.421875 80.308594 406.335938 79.851562 405.242188 C 79.398438 404.144531 78.96875 403.039062 78.570312 401.921875 C 78.167969 400.804688 77.796875 399.679688 77.453125 398.542969 C 77.109375 397.410156 76.789062 396.265625 76.503906 395.117188 C 76.214844 393.964844 75.953125 392.808594 75.722656 391.644531 C 75.488281 390.480469 75.285156 389.3125 75.113281 388.140625 C 74.9375 386.964844 74.792969 385.789062 74.675781 384.609375 C 74.558594 383.429688 74.472656 382.246094 74.414062 381.0625 C 74.355469 379.875 74.328125 378.691406 74.328125 377.503906 L 74.328125 71.910156 C 74.328125 70.722656 74.355469 69.539062 74.414062 68.351562 C 74.472656 67.167969 74.558594 65.984375 74.675781 64.804688 C 74.792969 63.625 74.9375 62.445312 75.113281 61.273438 C 75.285156 60.101562 75.488281 58.933594 75.722656 57.769531 C 75.953125 56.605469 76.214844 55.449219 76.503906 54.296875 C 76.789062 53.144531 77.109375 52.003906 77.453125 50.867188 C 77.796875 49.734375 78.171875 48.605469 78.570312 47.492188 C 78.96875 46.375 79.398438 45.265625 79.851562 44.171875 C 80.308594 43.074219 80.789062 41.992188 81.296875 40.917969 C 81.804688 39.847656 82.339844 38.789062 82.898438 37.742188 C 83.457031 36.695312 84.042969 35.664062 84.65625 34.644531 C 85.265625 33.628906 85.902344 32.625 86.5625 31.640625 C 87.222656 30.652344 87.90625 29.683594 88.613281 28.730469 C 89.320312 27.777344 90.050781 26.84375 90.804688 25.925781 C 91.558594 25.011719 92.335938 24.113281 93.132812 23.234375 C 93.929688 22.355469 94.75 21.496094 95.589844 20.65625 C 96.429688 19.816406 97.289062 19 98.171875 18.203125 C 99.050781 17.40625 99.949219 16.632812 100.867188 15.878906 C 101.789062 15.128906 102.722656 14.398438 103.679688 13.691406 C 104.632812 12.984375 105.601562 12.300781 106.589844 11.640625 C 107.578125 10.984375 108.582031 10.347656 109.601562 9.738281 C 110.621094 9.128906 111.65625 8.542969 112.703125 7.984375 C 113.75 7.425781 114.8125 6.894531 115.886719 6.386719 C 116.960938 5.878906 118.046875 5.398438 119.144531 4.945312 C 120.242188 4.492188 121.347656 4.0625 122.46875 3.664062 C 123.585938 3.265625 124.714844 2.890625 125.851562 2.546875 C 126.988281 2.203125 128.132812 1.886719 129.285156 1.597656 C 130.4375 1.3125 131.597656 1.050781 132.761719 0.820312 C 133.925781 0.589844 135.097656 0.386719 136.273438 0.210938 C 137.449219 0.0390625 138.625 -0.109375 139.808594 -0.222656 C 140.992188 -0.339844 142.175781 -0.425781 143.363281 -0.484375 C 144.550781 -0.542969 145.738281 -0.574219 146.925781 -0.574219 Z M 146.925781 -0.574219 " clip-rule="nonzero"/></clipPath><linearGradient x1="255.753683" gradientTransform="matrix(3.510562, 0, 0, 3.504937, -821.709369, -1491.327966)" y1="554.196297" x2="382.744514" gradientUnits="userSpaceOnUse" y2="424.986832" id="25334e35f5"><stop stop-opacity="1" stop-color="rgb(2.69928%, 0.39978%, 20.799255%)" offset="0"/><stop stop-opacity="1" stop-color="rgb(2.867126%, 0.480652%, 20.849609%)" offset="0.0625"/><stop stop-opacity="1" stop-color="rgb(3.189087%, 0.637817%, 20.94574%)" offset="0.0703125"/><stop stop-opacity="1" stop-color="rgb(3.500366%, 0.788879%, 21.038818%)" offset="0.078125"/><stop stop-opacity="1" stop-color="rgb(3.81012%, 0.939941%, 21.131897%)" offset="0.0859375"/><stop stop-opacity="1" stop-color="rgb(4.121399%, 1.091003%, 21.224976%)" offset="0.09375"/><stop stop-opacity="1" stop-color="rgb(4.431152%, 1.243591%, 21.31958%)" offset="0.101562"/><stop stop-opacity="1" stop-color="rgb(4.742432%, 1.394653%, 21.412659%)" offset="0.109375"/><stop stop-opacity="1" stop-color="rgb(5.052185%, 1.545715%, 21.505737%)" offset="0.117187"/><stop stop-opacity="1" stop-color="rgb(5.363464%, 1.696777%, 21.598816%)" offset="0.125"/><stop stop-opacity="1" stop-color="rgb(5.674744%, 1.847839%, 21.691895%)" offset="0.132812"/><stop stop-opacity="1" stop-color="rgb(5.984497%, 1.998901%, 21.784973%)" offset="0.140625"/><stop stop-opacity="1" stop-color="rgb(6.295776%, 2.151489%, 21.878052%)" offset="0.148437"/><stop stop-opacity="1" stop-color="rgb(6.60553%, 2.302551%, 21.97113%)" offset="0.15625"/><stop stop-opacity="1" stop-color="rgb(6.916809%, 2.453613%, 22.065735%)" offset="0.164062"/><stop stop-opacity="1" stop-color="rgb(7.226562%, 2.604675%, 22.158813%)" offset="0.171875"/><stop stop-opacity="1" stop-color="rgb(7.537842%, 2.755737%, 22.251892%)" offset="0.179687"/><stop stop-opacity="1" stop-color="rgb(7.847595%, 2.908325%, 22.344971%)" offset="0.1875"/><stop stop-opacity="1" stop-color="rgb(8.158875%, 3.059387%, 22.438049%)" offset="0.195312"/><stop stop-opacity="1" stop-color="rgb(8.468628%, 3.210449%, 22.531128%)" offset="0.203125"/><stop stop-opacity="1" stop-color="rgb(8.779907%, 3.361511%, 22.624207%)" offset="0.210937"/><stop stop-opacity="1" stop-color="rgb(9.091187%, 3.512573%, 22.717285%)" offset="0.21875"/><stop stop-opacity="1" stop-color="rgb(9.40094%, 3.663635%, 22.810364%)" offset="0.226562"/><stop stop-opacity="1" stop-color="rgb(9.712219%, 3.816223%, 22.904968%)" offset="0.234375"/><stop stop-opacity="1" stop-color="rgb(10.021973%, 3.967285%, 22.998047%)" offset="0.242187"/><stop stop-opacity="1" stop-color="rgb(10.333252%, 4.118347%, 23.091125%)" offset="0.25"/><stop stop-opacity="1" stop-color="rgb(10.643005%, 4.269409%, 23.184204%)" offset="0.257812"/><stop stop-opacity="1" stop-color="rgb(10.954285%, 4.420471%, 23.277283%)" offset="0.265625"/><stop stop-opacity="1" stop-color="rgb(11.264038%, 4.571533%, 23.370361%)" offset="0.273438"/><stop stop-opacity="1" stop-color="rgb(11.575317%, 4.724121%, 23.46344%)" offset="0.28125"/><stop stop-opacity="1" stop-color="rgb(11.885071%, 4.875183%, 23.556519%)" offset="0.289062"/><stop stop-opacity="1" stop-color="rgb(12.19635%, 5.026245%, 23.651123%)" offset="0.296875"/><stop stop-opacity="1" stop-color="rgb(12.507629%, 5.177307%, 23.744202%)" offset="0.304688"/><stop stop-opacity="1" stop-color="rgb(12.817383%, 5.328369%, 23.83728%)" offset="0.3125"/><stop stop-opacity="1" stop-color="rgb(13.128662%, 5.480957%, 23.930359%)" offset="0.320312"/><stop stop-opacity="1" stop-color="rgb(13.438416%, 5.632019%, 24.023438%)" offset="0.328125"/><stop stop-opacity="1" stop-color="rgb(13.749695%, 5.783081%, 24.116516%)" offset="0.335937"/><stop stop-opacity="1" stop-color="rgb(14.059448%, 5.934143%, 24.209595%)" offset="0.34375"/><stop stop-opacity="1" stop-color="rgb(14.370728%, 6.085205%, 24.302673%)" offset="0.351562"/><stop stop-opacity="1" stop-color="rgb(14.680481%, 6.236267%, 24.397278%)" offset="0.359375"/><stop stop-opacity="1" stop-color="rgb(14.99176%, 6.388855%, 24.490356%)" offset="0.367187"/><stop stop-opacity="1" stop-color="rgb(15.301514%, 6.539917%, 24.583435%)" offset="0.375"/><stop stop-opacity="1" stop-color="rgb(15.612793%, 6.690979%, 24.676514%)" offset="0.382812"/><stop stop-opacity="1" stop-color="rgb(15.924072%, 6.842041%, 24.769592%)" offset="0.390625"/><stop stop-opacity="1" stop-color="rgb(16.233826%, 6.993103%, 24.862671%)" offset="0.398438"/><stop stop-opacity="1" stop-color="rgb(16.545105%, 7.145691%, 24.95575%)" offset="0.40625"/><stop stop-opacity="1" stop-color="rgb(16.854858%, 7.296753%, 25.048828%)" offset="0.414062"/><stop stop-opacity="1" stop-color="rgb(17.166138%, 7.447815%, 25.143433%)" offset="0.421875"/><stop stop-opacity="1" stop-color="rgb(17.475891%, 7.598877%, 25.236511%)" offset="0.429687"/><stop stop-opacity="1" stop-color="rgb(17.78717%, 7.749939%, 25.32959%)" offset="0.4375"/><stop stop-opacity="1" stop-color="rgb(18.096924%, 7.901001%, 25.422668%)" offset="0.445312"/><stop stop-opacity="1" stop-color="rgb(18.408203%, 8.053589%, 25.515747%)" offset="0.453125"/><stop stop-opacity="1" stop-color="rgb(18.717957%, 8.204651%, 25.608826%)" offset="0.460937"/><stop stop-opacity="1" stop-color="rgb(19.029236%, 8.355713%, 25.701904%)" offset="0.46875"/><stop stop-opacity="1" stop-color="rgb(19.340515%, 8.506775%, 25.794983%)" offset="0.476562"/><stop stop-opacity="1" stop-color="rgb(19.650269%, 8.657837%, 25.888062%)" offset="0.484375"/><stop stop-opacity="1" stop-color="rgb(19.961548%, 8.808899%, 25.982666%)" offset="0.492187"/><stop stop-opacity="1" stop-color="rgb(20.271301%, 8.961487%, 26.075745%)" offset="0.494581"/><stop stop-opacity="1" stop-color="rgb(20.426941%, 9.037781%, 26.123047%)" offset="0.5"/><stop stop-opacity="1" stop-color="rgb(20.582581%, 9.112549%, 26.168823%)" offset="0.505419"/><stop stop-opacity="1" stop-color="rgb(20.73822%, 9.188843%, 26.216125%)" offset="0.507812"/><stop stop-opacity="1" stop-color="rgb(20.892334%, 9.263611%, 26.261902%)" offset="0.515625"/><stop stop-opacity="1" stop-color="rgb(21.203613%, 9.414673%, 26.35498%)" offset="0.523437"/><stop stop-opacity="1" stop-color="rgb(21.513367%, 9.565735%, 26.448059%)" offset="0.53125"/><stop stop-opacity="1" stop-color="rgb(21.824646%, 9.718323%, 26.541138%)" offset="0.539062"/><stop stop-opacity="1" stop-color="rgb(22.134399%, 9.869385%, 26.634216%)" offset="0.546875"/><stop stop-opacity="1" stop-color="rgb(22.445679%, 10.020447%, 26.728821%)" offset="0.554687"/><stop stop-opacity="1" stop-color="rgb(22.756958%, 10.171509%, 26.821899%)" offset="0.5625"/><stop stop-opacity="1" stop-color="rgb(23.066711%, 10.322571%, 26.914978%)" offset="0.570312"/><stop stop-opacity="1" stop-color="rgb(23.377991%, 10.473633%, 27.008057%)" offset="0.578125"/><stop stop-opacity="1" stop-color="rgb(23.687744%, 10.626221%, 27.101135%)" offset="0.585938"/><stop stop-opacity="1" stop-color="rgb(23.999023%, 10.777283%, 27.194214%)" offset="0.59375"/><stop stop-opacity="1" stop-color="rgb(24.308777%, 10.928345%, 27.287292%)" offset="0.601562"/><stop stop-opacity="1" stop-color="rgb(24.620056%, 11.079407%, 27.380371%)" offset="0.609375"/><stop stop-opacity="1" stop-color="rgb(24.92981%, 11.230469%, 27.474976%)" offset="0.617188"/><stop stop-opacity="1" stop-color="rgb(25.241089%, 11.381531%, 27.568054%)" offset="0.625"/><stop stop-opacity="1" stop-color="rgb(25.550842%, 11.534119%, 27.661133%)" offset="0.632812"/><stop stop-opacity="1" stop-color="rgb(25.862122%, 11.685181%, 27.754211%)" offset="0.640625"/><stop stop-opacity="1" stop-color="rgb(26.173401%, 11.836243%, 27.84729%)" offset="0.648437"/><stop stop-opacity="1" stop-color="rgb(26.483154%, 11.987305%, 27.940369%)" offset="0.65625"/><stop stop-opacity="1" stop-color="rgb(26.794434%, 12.138367%, 28.033447%)" offset="0.664062"/><stop stop-opacity="1" stop-color="rgb(27.104187%, 12.290955%, 28.126526%)" offset="0.671875"/><stop stop-opacity="1" stop-color="rgb(27.415466%, 12.442017%, 28.22113%)" offset="0.679687"/><stop stop-opacity="1" stop-color="rgb(27.72522%, 12.593079%, 28.314209%)" offset="0.6875"/><stop stop-opacity="1" stop-color="rgb(28.036499%, 12.744141%, 28.407288%)" offset="0.695312"/><stop stop-opacity="1" stop-color="rgb(28.346252%, 12.895203%, 28.500366%)" offset="0.703125"/><stop stop-opacity="1" stop-color="rgb(28.657532%, 13.046265%, 28.593445%)" offset="0.710937"/><stop stop-opacity="1" stop-color="rgb(28.967285%, 13.198853%, 28.686523%)" offset="0.71875"/><stop stop-opacity="1" stop-color="rgb(29.278564%, 13.349915%, 28.779602%)" offset="0.726562"/><stop stop-opacity="1" stop-color="rgb(29.589844%, 13.500977%, 28.872681%)" offset="0.734375"/><stop stop-opacity="1" stop-color="rgb(29.899597%, 13.652039%, 28.967285%)" offset="0.742187"/><stop stop-opacity="1" stop-color="rgb(30.210876%, 13.803101%, 29.060364%)" offset="0.75"/><stop stop-opacity="1" stop-color="rgb(30.52063%, 13.955688%, 29.153442%)" offset="0.757812"/><stop stop-opacity="1" stop-color="rgb(30.831909%, 14.10675%, 29.246521%)" offset="0.765625"/><stop stop-opacity="1" stop-color="rgb(31.141663%, 14.257812%, 29.3396%)" offset="0.773438"/><stop stop-opacity="1" stop-color="rgb(31.452942%, 14.408875%, 29.432678%)" offset="0.78125"/><stop stop-opacity="1" stop-color="rgb(31.762695%, 14.559937%, 29.525757%)" offset="0.789062"/><stop stop-opacity="1" stop-color="rgb(32.073975%, 14.710999%, 29.618835%)" offset="0.796875"/><stop stop-opacity="1" stop-color="rgb(32.383728%, 14.863586%, 29.711914%)" offset="0.804687"/><stop stop-opacity="1" stop-color="rgb(32.695007%, 15.014648%, 29.806519%)" offset="0.8125"/><stop stop-opacity="1" stop-color="rgb(33.006287%, 15.16571%, 29.899597%)" offset="0.820312"/><stop stop-opacity="1" stop-color="rgb(33.31604%, 15.316772%, 29.992676%)" offset="0.828125"/><stop stop-opacity="1" stop-color="rgb(33.627319%, 15.467834%, 30.085754%)" offset="0.835937"/><stop stop-opacity="1" stop-color="rgb(33.937073%, 15.618896%, 30.178833%)" offset="0.84375"/><stop stop-opacity="1" stop-color="rgb(34.248352%, 15.771484%, 30.271912%)" offset="0.851562"/><stop stop-opacity="1" stop-color="rgb(34.558105%, 15.922546%, 30.36499%)" offset="0.859375"/><stop stop-opacity="1" stop-color="rgb(34.869385%, 16.073608%, 30.458069%)" offset="0.867187"/><stop stop-opacity="1" stop-color="rgb(35.179138%, 16.22467%, 30.552673%)" offset="0.875"/><stop stop-opacity="1" stop-color="rgb(35.490417%, 16.375732%, 30.645752%)" offset="0.882812"/><stop stop-opacity="1" stop-color="rgb(35.800171%, 16.52832%, 30.738831%)" offset="0.890625"/><stop stop-opacity="1" stop-color="rgb(36.11145%, 16.679382%, 30.831909%)" offset="0.898437"/><stop stop-opacity="1" stop-color="rgb(36.422729%, 16.830444%, 30.924988%)" offset="0.90625"/><stop stop-opacity="1" stop-color="rgb(36.732483%, 16.981506%, 31.018066%)" offset="0.914062"/><stop stop-opacity="1" stop-color="rgb(37.043762%, 17.132568%, 31.111145%)" offset="0.921875"/><stop stop-opacity="1" stop-color="rgb(37.353516%, 17.28363%, 31.204224%)" offset="0.929688"/><stop stop-opacity="1" stop-color="rgb(37.664795%, 17.436218%, 31.298828%)" offset="0.9375"/><stop stop-opacity="1" stop-color="rgb(37.908936%, 17.555237%, 31.37207%)" offset="1"/></linearGradient></defs><g clip-path="url(#d308f1265c)"><g clip-path="url(#81dbd8041e)"><path fill="url(#25334e35f5)" d="M 75 0 L 75 449.988281 L 523.75 449.988281 L 523.75 0 Z M 75 0 " fill-rule="nonzero"/></g></g><path fill="#ffffff" d="M 302.40625 193.355469 C 313.886719 193.355469 322.585938 190.902344 328.515625 185.878906 C 334.445312 180.855469 337.40625 173.542969 337.40625 163.824219 C 337.40625 154.226562 334.445312 146.9375 328.515625 141.953125 C 322.546875 136.839844 313.882812 134.285156 302.40625 134.285156 L 262.105469 134.285156 L 262.105469 193.359375 L 302.40625 193.359375 M 304.863281 315.425781 C 319.492188 315.425781 330.46875 312.375 337.785156 306.265625 C 345.226562 300.160156 348.949219 290.941406 348.949219 278.601562 C 348.949219 266.511719 345.289062 257.476562 337.972656 251.5 C 330.65625 245.394531 319.625 242.339844 304.867188 242.339844 L 262.109375 242.339844 L 262.109375 315.433594 L 304.867188 315.433594 M 372.597656 215.050781 C 388.238281 219.539062 400.34375 227.828125 408.921875 239.910156 C 417.5 251.996094 421.785156 266.828125 421.789062 284.402344 C 421.789062 311.320312 412.578125 331.386719 394.167969 344.597656 C 375.753906 357.808594 347.757812 364.410156 310.167969 364.410156 L 189.28125 364.410156 L 189.28125 85.382812 L 298.632812 85.382812 C 337.859375 85.382812 366.238281 91.234375 383.765625 102.953125 C 401.421875 114.667969 410.253906 133.425781 410.253906 159.222656 C 410.253906 172.804688 407.035156 184.394531 400.605469 193.988281 C 394.175781 203.460938 384.808594 210.464844 372.605469 215.113281 " fill-opacity="1" fill-rule="nonzero"/></svg>