<svg xmlns="http://www.w3.org/2000/svg" xmlns:xlink="http://www.w3.org/1999/xlink" width="800" zoomAndPan="magnify" viewBox="0 0 600 449.999984" height="600" preserveAspectRatio="xMidYMid meet" version="1.0"><defs><clipPath id="a382db85be"><path d="M 98.625 0 L 501.375 0 L 501.375 450 L 98.625 450 Z M 98.625 0 " clip-rule="nonzero"/></clipPath></defs><g clip-path="url(#a382db85be)"><path fill="#0277bd" d="M 501.316406 0 L 98.683594 0 L 134.210938 402.632812 L 300 450 L 465.789062 402.632812 Z M 501.316406 0 " fill-opacity="1" fill-rule="nonzero"/></g><path fill="#039be5" d="M 300 35.527344 L 300 413.289062 L 432.632812 375.394531 L 462.238281 35.527344 Z M 300 35.527344 " fill-opacity="1" fill-rule="nonzero"/><path fill="#ffffff" d="M 407.761719 94.738281 L 300 94.738281 L 300 142.105469 L 358.027344 142.105469 L 354.472656 189.472656 L 300 189.472656 L 300 236.84375 L 352.105469 236.84375 L 348.550781 290.132812 L 300 306.710938 L 300 356.449219 L 393.550781 325.65625 L 401.84375 189.472656 Z M 407.761719 94.738281 " fill-opacity="1" fill-rule="nonzero"/><path fill="#eeeeee" d="M 300 94.738281 L 300 142.105469 L 194.605469 142.105469 L 191.050781 94.738281 Z M 245.527344 189.472656 L 247.894531 236.84375 L 300 236.84375 L 300 189.472656 Z M 250.261719 260.527344 L 202.894531 260.527344 L 206.449219 325.65625 L 300 356.449219 L 300 306.710938 L 251.449219 290.132812 Z M 250.261719 260.527344 " fill-opacity="1" fill-rule="nonzero"/></svg>