<svg xmlns="http://www.w3.org/2000/svg" xmlns:xlink="http://www.w3.org/1999/xlink" width="800" zoomAndPan="magnify" viewBox="0 0 600 449.999984" height="600" preserveAspectRatio="xMidYMid meet" version="1.0"><defs><clipPath id="5b9bffb878"><path d="M 103.125 1 L 496.875 1 L 496.875 449 L 103.125 449 Z M 103.125 1 " clip-rule="nonzero"/></clipPath></defs><g clip-path="url(#5b9bffb878)"><path fill="#e44d26" d="M 138.871094 403.75 L 103.011719 1.609375 L 496.988281 1.609375 L 461.101562 403.695312 L 299.75 448.402344 Z M 138.871094 403.75 " fill-opacity="1" fill-rule="nonzero"/></g><path fill="#f16529" d="M 430.371094 378.085938 L 461.046875 34.492188 L 300 34.492188 L 300 414.238281 Z M 430.371094 378.085938 " fill-opacity="1" fill-rule="nonzero"/><path fill="#ebebeb" d="M 299.832031 83.808594 L 176.316406 83.808594 L 189.625 232.957031 L 300 232.957031 L 300 183.640625 L 234.738281 183.640625 L 230.226562 133.140625 L 300 133.140625 L 300 83.808594 Z M 300 311.570312 L 299.789062 311.625 L 244.859375 296.796875 L 241.371094 257.464844 L 191.832031 257.464844 L 198.742188 334.902344 L 299.777344 362.828125 L 300 362.757812 Z M 300 311.570312 " fill-opacity="1" fill-rule="nonzero"/><path fill="#ffffff" d="M 299.832031 232.957031 L 360.570312 232.957031 L 354.984375 296.910156 L 299.972656 311.75 L 299.972656 363.0625 L 401.089844 335.039062 L 414.632812 183.613281 L 300 183.613281 Z M 422.203125 97.046875 L 423.375 83.808594 L 299.804688 83.808594 L 299.804688 133.125 L 418.933594 133.125 L 419.914062 122.039062 Z M 422.203125 97.046875 " fill-opacity="1" fill-rule="nonzero"/></svg>