<svg xmlns="http://www.w3.org/2000/svg" xmlns:xlink="http://www.w3.org/1999/xlink" width="800" zoomAndPan="magnify" viewBox="0 0 600 449.999984" height="600" preserveAspectRatio="xMidYMid meet" version="1.0"><defs><clipPath id="9d61349d9e"><path d="M 75 0 L 524 0 L 524 449 L 75 449 Z M 75 0 " clip-rule="nonzero"/></clipPath><clipPath id="4fae9e1a51"><path d="M 75 0 L 299 0 L 299 449 L 75 449 Z M 75 0 " clip-rule="nonzero"/></clipPath></defs><g clip-path="url(#9d61349d9e)"><path fill="#ffc44d" d="M 89.652344 -1.046875 C 80.980469 -1.046875 73.953125 5.980469 73.953125 14.652344 L 73.953125 433.253906 C 73.953125 441.925781 80.980469 448.953125 89.652344 448.953125 L 508.253906 448.953125 C 516.925781 448.953125 523.953125 441.925781 523.953125 433.253906 L 523.953125 14.652344 C 523.953125 5.980469 516.925781 -1.046875 508.253906 -1.046875 Z M 89.652344 -1.046875 " fill-opacity="1" fill-rule="nonzero"/></g><g clip-path="url(#4fae9e1a51)"><path fill="#e5b045" d="M 298.953125 -1.046875 L 298.953125 448.953125 L 89.652344 448.953125 C 80.980469 448.953125 73.953125 441.925781 73.953125 433.253906 L 73.953125 14.652344 C 73.953125 5.980469 80.980469 -1.046875 89.652344 -1.046875 Z M 298.953125 -1.046875 " fill-opacity="1" fill-rule="evenodd"/></g><path fill="#eceff1" d="M 393.140625 239.652344 C 384.46875 239.652344 377.441406 246.679688 377.441406 255.347656 L 377.441406 265.8125 C 377.441406 274.484375 384.46875 281.511719 393.140625 281.511719 L 424.535156 281.511719 C 450.542969 281.511719 471.628906 302.597656 471.628906 328.605469 L 471.628906 339.070312 C 471.628906 365.078125 450.542969 386.164062 424.535156 386.164062 L 361.746094 386.164062 C 353.074219 386.164062 346.046875 379.132812 346.046875 370.464844 C 346.046875 361.796875 353.074219 354.765625 361.746094 354.765625 L 424.535156 354.765625 C 433.203125 354.765625 440.234375 347.738281 440.234375 339.070312 L 440.234375 328.605469 C 440.234375 319.933594 433.203125 312.90625 424.535156 312.90625 L 393.140625 312.90625 C 367.132812 312.90625 346.046875 291.820312 346.046875 265.8125 L 346.046875 255.347656 C 346.046875 229.339844 367.132812 208.253906 393.140625 208.253906 L 455.929688 208.253906 C 464.597656 208.253906 471.628906 215.285156 471.628906 223.953125 C 471.628906 232.621094 464.597656 239.652344 455.929688 239.652344 Z M 393.140625 239.652344 " fill-opacity="1" fill-rule="evenodd"/><path fill="#cfd8dc" d="M 309.417969 208.253906 C 318.089844 208.253906 325.117188 215.285156 325.117188 223.953125 L 325.117188 339.070312 C 325.117188 365.078125 304.03125 386.164062 278.023438 386.164062 L 246.628906 386.164062 C 220.621094 386.164062 199.535156 365.078125 199.535156 339.070312 L 199.535156 328.605469 C 199.535156 319.933594 206.5625 312.90625 215.234375 312.90625 C 223.902344 312.90625 230.929688 319.933594 230.929688 328.605469 L 230.929688 339.070312 C 230.929688 347.738281 237.957031 354.765625 246.628906 354.765625 L 278.023438 354.765625 C 286.691406 354.765625 293.722656 347.738281 293.722656 339.070312 L 293.722656 223.953125 C 293.722656 215.285156 300.75 208.253906 309.417969 208.253906 Z M 309.417969 208.253906 " fill-opacity="1" fill-rule="evenodd"/></svg>