<svg xmlns="http://www.w3.org/2000/svg" xmlns:xlink="http://www.w3.org/1999/xlink" width="800" zoomAndPan="magnify" viewBox="0 0 600 449.999984" height="600" preserveAspectRatio="xMidYMid meet" version="1.0"><path fill="#599636" d="M 299.128906 1.222656 L 311.117188 23.78125 C 313.8125 27.941406 316.734375 31.625 320.171875 35.058594 C 330.210938 45.113281 339.746094 55.644531 348.308594 66.921875 C 368.625 93.640625 382.328125 123.3125 392.113281 155.40625 C 397.980469 175.007812 401.167969 195.117188 401.40625 215.453125 C 402.390625 276.242188 381.582031 328.445312 339.632812 371.828125 C 332.78125 378.6875 325.453125 385.046875 317.589844 390.699219 C 313.433594 390.699219 311.46875 387.507812 309.753906 384.566406 C 306.570312 379.179688 304.617188 373.035156 303.632812 366.917969 C 302.160156 359.5625 301.191406 352.210938 301.667969 344.617188 L 301.667969 341.183594 C 301.332031 340.453125 297.667969 2.953125 299.128906 1.222656 Z M 299.128906 1.222656 " fill-opacity="1" fill-rule="nonzero"/><path fill="#6cac48" d="M 299.128906 0.476562 C 298.636719 -0.507812 298.144531 0.238281 297.652344 0.71875 C 297.890625 5.640625 296.179688 10.027344 293.496094 14.21875 C 290.550781 18.378906 286.644531 21.570312 282.730469 25.003906 C 260.96875 43.875 243.839844 66.671875 230.121094 92.164062 C 211.871094 126.476562 202.464844 163.25 199.796875 201.964844 C 198.574219 215.929688 204.203125 265.203125 208.597656 279.421875 C 220.589844 317.164062 242.125 348.792969 270.023438 376.242188 C 276.875 382.851562 284.203125 388.984375 291.785156 394.875 C 293.988281 394.875 294.226562 392.90625 294.734375 391.445312 C 295.699219 388.308594 296.433594 385.121094 296.9375 381.882812 L 301.851562 345.121094 Z M 299.128906 0.476562 " fill-opacity="1" fill-rule="nonzero"/><path fill="#c2bfbf" d="M 311.117188 405.632812 C 311.609375 400.007812 314.304688 395.339844 317.238281 390.683594 C 314.289062 389.460938 312.101562 387.027344 310.386719 384.3125 C 308.914062 381.867188 307.691406 378.929688 306.738281 376.226562 C 303.3125 365.933594 302.582031 355.132812 301.597656 344.617188 L 301.597656 338.246094 C 300.378906 339.230469 300.125 347.554688 300.125 348.792969 C 299.410156 359.921875 297.941406 370.953125 295.714844 381.882812 C 294.984375 386.296875 294.496094 390.699219 291.785156 394.621094 C 291.785156 395.113281 291.785156 395.605469 292.023438 396.335938 C 296.433594 409.332031 297.640625 422.5625 298.382812 436.050781 L 298.382812 440.972656 C 298.382812 446.851562 298.144531 445.613281 303.015625 447.582031 C 304.980469 448.3125 307.171875 448.566406 309.136719 450.027344 C 310.613281 450.027344 310.851562 448.804688 310.851562 447.820312 L 310.121094 439.734375 L 310.121094 417.179688 C 309.882812 413.242188 310.613281 409.332031 311.105469 405.648438 Z M 311.117188 405.632812 " fill-opacity="1" fill-rule="nonzero"/></svg>