<svg xmlns="http://www.w3.org/2000/svg" xmlns:xlink="http://www.w3.org/1999/xlink" width="800" zoomAndPan="magnify" viewBox="0 0 600 449.999984" height="600" preserveAspectRatio="xMidYMid meet" version="1.0"><defs><clipPath id="1e51724484"><path d="M 156 292 L 246 292 L 246 424.875 L 156 424.875 Z M 156 292 " clip-rule="nonzero"/></clipPath></defs><g clip-path="url(#1e51724484)"><path fill="#105e86" d="M 165.898438 411.484375 C 162.320312 411.484375 159.132812 411.265625 156.433594 410.847656 L 156.433594 422.742188 C 161.976562 424.949219 166.5625 426.050781 170.3125 426.050781 C 184.367188 426.050781 197.316406 417.46875 209.136719 400.226562 C 224.242188 377.910156 236.457031 342.082031 245.726562 292.835938 L 224.144531 292.835938 C 220.296875 323.074219 213.476562 351.082031 203.667969 376.683594 C 204.355469 371.558594 202.660156 362.558594 198.640625 349.660156 L 180.8125 292.835938 L 158.492188 292.835938 L 183.359375 368.835938 C 187.113281 380.242188 189 387.84375 189 391.570312 C 189 396.941406 186.597656 401.796875 181.765625 406.136719 C 177.746094 409.667969 172.472656 411.484375 165.898438 411.484375 Z M 165.898438 411.484375 " fill-opacity="1" fill-rule="nonzero"/></g><path fill="#de8a03" d="M 483.492188 257.9375 L 483.492188 391.082031 L 547.992188 391.082031 L 547.992188 374.699219 L 505.195312 374.699219 L 505.195312 257.9375 Z M 483.492188 257.9375 " fill-opacity="1" fill-rule="nonzero"/><path fill="#105e86" d="M 31.210938 284.890625 L 31.457031 284.890625 L 65.789062 391.082031 L 83.082031 391.082031 L 117.660156 284.890625 L 117.855469 284.890625 C 121.460938 318.121094 123.742188 353.460938 124.476562 391.082031 L 147.285156 391.082031 C 146.207031 350.859375 142.722656 306.445312 136.789062 257.9375 L 109.933594 257.9375 L 76.898438 355.789062 L 76.703125 355.789062 L 43.964844 257.9375 L 15.761719 257.9375 C 10.414062 299.332031 7.054688 343.746094 5.707031 391.082031 L 26.429688 391.082031 C 27.089844 352.136719 28.683594 316.746094 31.210938 284.890625 Z M 31.210938 284.890625 " fill-opacity="1" fill-rule="nonzero"/><path fill="#de8a03" d="M 463.800781 322.019531 C 463.800781 277.972656 446.191406 255.902344 410.949219 255.902344 C 393.683594 255.902344 380.195312 261.492188 370.484375 272.675781 C 359.9375 284.914062 354.640625 302.914062 354.640625 326.726562 C 354.640625 350.125 359.300781 367.316406 368.71875 378.253906 C 377.300781 388.136719 390.226562 393.066406 407.539062 393.066406 C 414.015625 393.066406 419.949219 392.28125 425.320312 390.710938 L 457.816406 409.300781 L 466.644531 394.34375 L 466.570312 394.34375 L 441.652344 382.300781 C 443.859375 380.460938 445.996094 378.5 447.90625 376.292969 C 458.527344 364.078125 463.800781 345.980469 463.800781 322.019531 Z M 409.773438 376.585938 C 398.859375 376.585938 390.886719 372.5625 385.785156 364.542969 L 385.835938 364.421875 C 380.316406 355.765625 377.570312 341.785156 377.570312 322.632812 C 377.570312 289.082031 387.96875 272.308594 408.71875 272.308594 C 419.582031 272.308594 427.601562 276.328125 432.675781 284.347656 C 438.171875 293.054688 440.917969 306.886719 440.917969 325.84375 C 440.917969 359.640625 430.519531 376.585938 409.773438 376.585938 Z M 409.773438 376.585938 " fill-opacity="1" fill-rule="nonzero"/><path fill="#de8a03" d="M 329.429688 326.140625 C 329.429688 326.140625 309.957031 315.175781 300.320312 310.003906 C 289.722656 304.214844 283.984375 297.421875 283.984375 289.546875 C 283.984375 284.398438 286.316406 280.203125 290.066406 276.917969 C 293.796875 273.582031 299.167969 271.964844 306.105469 271.964844 C 314.664062 271.964844 323.371094 273.828125 332.199219 277.507812 L 337.425781 266.054688 C 327.125 259.457031 315.648438 256.195312 303.089844 256.195312 C 290.828125 256.195312 280.894531 259.480469 273.171875 266.175781 C 265.492188 272.796875 261.644531 281.457031 261.644531 292.296875 C 261.644531 305.316406 266.792969 313.238281 277.144531 320.644531 C 277.144531 320.644531 296.148438 331.339844 305.664062 336.464844 C 315.917969 342.128906 321.558594 348.875 321.558594 356.820312 C 321.558594 363.097656 318.808594 368.074219 314.199219 371.632812 C 309.539062 375.164062 303.140625 376.929688 294.996094 376.929688 C 286.242188 376.929688 276.554688 374.328125 265.8125 369.03125 L 260 380.484375 C 272.484375 388.75 285.261719 392.894531 298.578125 392.894531 C 312.828125 392.894531 324.082031 389.289062 332.519531 382.054688 C 340.957031 374.84375 345.175781 365.550781 345.175781 354.21875 L 345.320312 354.292969 C 345.320312 341.320312 340.046875 333.496094 329.429688 326.140625 Z M 329.429688 326.140625 " fill-opacity="1" fill-rule="nonzero"/><path fill="#105e86" d="M 408.03125 73.390625 C 405.210938 73.390625 403.296875 73.734375 401.3125 74.175781 L 401.3125 74.492188 L 401.652344 74.492188 C 402.980469 76.996094 405.234375 78.832031 406.902344 81.066406 C 408.226562 83.640625 409.355469 86.214844 410.679688 88.765625 L 411.023438 88.398438 C 413.328125 86.804688 414.457031 84.253906 414.457031 80.378906 C 413.476562 79.25 413.328125 78.121094 412.492188 77.019531 C 411.511719 75.398438 409.402344 74.617188 408.078125 73.339844 Z M 408.03125 73.390625 " fill-opacity="1" fill-rule="nonzero"/><path fill="#105e86" d="M 586.816406 255.65625 C 582.058594 249.402344 576.144531 243.933594 569.769531 239.394531 C 564.523438 235.890625 553.042969 230.960938 550.886719 225.074219 L 550.566406 224.730469 C 554.148438 224.410156 558.414062 223.136719 561.847656 222.179688 C 567.414062 220.734375 572.515625 221.050781 578.28125 219.628906 C 580.878906 218.992188 583.503906 218.183594 586.128906 217.371094 L 586.128906 215.925781 C 583.183594 213.03125 580.976562 209.109375 577.9375 206.410156 C 569.597656 199.296875 560.351562 192.40625 550.863281 186.59375 C 545.710938 183.355469 539.1875 181.296875 533.769531 178.550781 C 531.804688 177.59375 528.519531 177.105469 527.390625 175.484375 C 524.449219 171.976562 522.730469 167.292969 520.648438 163.101562 C 515.9375 154.246094 511.328125 144.4375 507.230469 135.09375 C 504.289062 128.789062 502.5 122.511719 498.894531 116.722656 C 481.972656 89.355469 463.652344 72.75 435.472656 56.539062 C 429.414062 53.179688 422.15625 51.734375 414.480469 49.945312 C 410.386719 49.746094 406.289062 49.453125 402.21875 49.28125 C 399.519531 48.152344 396.921875 45.089844 394.617188 43.617188 C 385.296875 37.828125 361.164062 25.320312 354.296875 41.875 C 349.882812 52.324219 360.84375 62.621094 364.648438 67.921875 C 367.46875 71.597656 371.023438 75.816406 372.984375 79.960938 C 374.136719 82.757812 374.457031 85.628906 375.609375 88.546875 C 378.207031 95.632812 380.6875 103.503906 384.117188 110.152344 C 385.910156 113.511719 387.871094 117.066406 390.175781 120.085938 C 391.5 121.851562 393.757812 122.660156 394.273438 125.554688 C 391.96875 128.839844 391.820312 133.597656 390.496094 137.59375 C 384.609375 155.816406 386.914062 178.355469 395.253906 191.769531 C 397.878906 195.765625 404.132812 204.621094 412.492188 201.234375 C 419.851562 198.339844 418.234375 189.195312 420.339844 181.125 C 420.832031 179.1875 420.511719 177.914062 421.519531 176.613281 L 421.519531 176.980469 C 423.824219 181.519531 426.128906 185.808594 428.238281 190.347656 C 433.289062 198.242188 442.121094 206.433594 449.5 211.902344 C 453.425781 214.796875 456.539062 219.800781 461.445312 221.589844 L 461.445312 221.101562 L 461.078125 221.101562 C 460.023438 219.703125 458.625 219.039062 457.300781 217.886719 C 454.355469 214.992188 451.046875 211.460938 448.714844 208.25 C 441.851562 199.175781 435.792969 189.21875 430.398438 178.917969 C 427.699219 173.867188 425.441406 168.421875 423.285156 163.445312 C 422.304688 161.53125 422.304688 158.636719 420.660156 157.65625 C 418.207031 161.164062 414.601562 164.226562 412.8125 168.570312 C 409.699219 175.507812 409.378906 184.019531 408.203125 192.898438 C 407.539062 193.070312 407.859375 192.898438 407.539062 193.242188 C 402.292969 191.988281 400.5 186.644531 398.539062 182.15625 C 393.632812 170.726562 392.824219 152.359375 397.066406 139.164062 C 398.21875 135.804688 403.125 125.160156 401.164062 121.921875 C 400.132812 118.859375 396.894531 117.117188 395.105469 114.640625 C 392.972656 111.648438 390.691406 107.773438 389.21875 104.363281 C 385.296875 95.363281 383.335938 85.382812 379.066406 76.382812 C 377.105469 72.210938 373.671875 67.847656 370.875 64.019531 C 367.761719 59.679688 364.328125 56.640625 361.851562 51.488281 C 361.042969 49.722656 359.890625 46.804688 361.1875 44.890625 C 361.53125 43.59375 362.21875 43.078125 363.492188 42.734375 C 365.652344 40.992188 371.710938 43.273438 373.84375 44.230469 C 379.902344 46.632812 385 48.890625 390.078125 52.273438 C 392.382812 53.867188 394.859375 56.910156 397.804688 57.71875 L 401.238281 57.71875 C 406.484375 58.847656 412.394531 58.0625 417.300781 59.484375 C 426.007812 62.230469 433.855469 66.226562 440.894531 70.570312 C 462.375 83.960938 480.035156 102.941406 492.027344 125.601562 C 493.988281 129.304688 494.847656 132.714844 496.636719 136.566406 C 500.070312 144.511719 504.3125 152.53125 507.796875 160.207031 C 511.230469 167.785156 514.539062 175.535156 519.46875 181.8125 C 521.921875 185.171875 531.78125 186.9375 536.195312 188.703125 C 539.457031 190.152344 544.535156 191.476562 547.476562 193.242188 C 553.117188 196.601562 558.609375 200.476562 563.910156 204.179688 C 566.605469 206.019531 574.773438 210.039062 575.261719 213.277344 C 562.140625 212.933594 551.964844 214.234375 543.453125 217.8125 C 541.003906 218.769531 537.078125 218.769531 536.734375 221.835938 C 538.082031 223.113281 538.28125 225.195312 539.433594 226.988281 C 541.394531 230.199219 544.777344 234.515625 547.917969 236.796875 C 551.351562 239.445312 554.785156 241.996094 558.390625 244.25 C 564.765625 248.101562 572 250.382812 578.253906 254.257812 C 581.8125 256.515625 585.441406 259.382812 589.046875 261.785156 C 590.835938 262.988281 591.988281 265.171875 594.292969 265.929688 L 594.292969 265.464844 C 593.167969 264.019531 592.824219 261.933594 591.71875 260.316406 C 590.078125 258.695312 588.433594 257.25 586.816406 255.65625 Z M 586.816406 255.65625 " fill-opacity="1" fill-rule="nonzero"/></svg>