<svg xmlns="http://www.w3.org/2000/svg" xmlns:xlink="http://www.w3.org/1999/xlink" width="800" zoomAndPan="magnify" viewBox="0 0 600 449.999984" height="600" preserveAspectRatio="xMidYMid meet" version="1.0"><defs><clipPath id="449c40e601"><path d="M 100.59375 1 L 499.59375 1 L 499.59375 450 L 100.59375 450 Z M 100.59375 1 " clip-rule="nonzero"/></clipPath></defs><g clip-path="url(#449c40e601)"><path fill="#539e43" d="M 300.09375 449.9375 C 293.902344 449.9375 288.128906 448.289062 282.777344 445.414062 L 227.945312 412.851562 C 219.703125 408.328125 223.824219 406.679688 226.296875 405.855469 C 237.429688 402.140625 239.488281 401.316406 251.035156 394.722656 C 252.269531 393.898438 253.917969 394.316406 255.15625 395.140625 L 297.199219 420.269531 C 298.847656 421.09375 300.917969 421.09375 302.164062 420.269531 L 466.644531 325.089844 C 468.292969 324.265625 469.117188 322.621094 469.117188 320.550781 L 469.117188 130.582031 C 469.117188 128.523438 468.292969 126.875 466.644531 126.054688 L 302.164062 31.273438 C 300.515625 30.449219 298.445312 30.449219 297.199219 31.273438 L 132.71875 126.054688 C 131.0625 126.875 130.238281 128.9375 130.238281 130.585938 L 130.238281 320.550781 C 130.238281 322.199219 131.0625 324.269531 132.710938 325.09375 L 177.648438 351.046875 C 201.972656 363.40625 217.226562 348.992188 217.226562 334.5625 L 217.226562 147.066406 C 217.226562 144.597656 219.289062 142.125 222.175781 142.125 L 243.203125 142.125 C 245.675781 142.125 248.148438 144.183594 248.148438 147.070312 L 248.148438 334.5625 C 248.148438 367.125 230.417969 386.078125 199.5 386.078125 C 190.015625 386.078125 182.597656 386.078125 161.570312 375.769531 L 118.28125 351.046875 C 107.5625 344.875 100.96875 333.335938 100.96875 320.972656 L 100.96875 131.007812 C 100.96875 118.636719 107.5625 107.101562 118.28125 100.917969 L 282.777344 5.730469 C 293.078125 -0.0390625 307.109375 -0.0390625 317.410156 5.730469 L 481.90625 100.917969 C 492.625 107.097656 499.21875 118.636719 499.21875 131 L 499.21875 320.96875 C 499.21875 333.328125 492.625 344.867188 481.90625 351.039062 L 317.410156 446.234375 C 312.058594 448.707031 305.867188 449.933594 300.09375 449.933594 Z M 350.808594 319.324219 C 278.65625 319.324219 263.816406 286.34375 263.816406 258.324219 C 263.816406 255.851562 265.867188 253.378906 268.761719 253.378906 L 290.199219 253.378906 C 292.671875 253.378906 294.726562 255.027344 294.726562 257.5 C 298.023438 279.34375 307.515625 290.058594 351.214844 290.058594 C 385.84375 290.058594 400.683594 282.222656 400.683594 263.6875 C 400.683594 252.972656 396.5625 245.136719 342.5625 239.789062 C 297.621094 235.246094 269.585938 225.359375 269.585938 189.515625 C 269.585938 156.132812 297.621094 136.355469 344.617188 136.355469 C 397.386719 136.355469 423.363281 154.484375 426.664062 194.042969 C 426.664062 195.285156 426.242188 196.511719 425.417969 197.757812 C 424.59375 198.582031 423.363281 199.40625 422.121094 199.40625 L 400.683594 199.40625 C 398.628906 199.40625 396.5625 197.757812 396.15625 195.6875 C 391.210938 173.035156 378.421875 165.617188 344.617188 165.617188 C 306.691406 165.617188 302.164062 178.800781 302.164062 188.691406 C 302.164062 200.632812 307.515625 204.351562 358.632812 210.941406 C 409.347656 217.535156 433.257812 227.003906 433.257812 262.441406 C 432.839844 298.703125 403.15625 319.324219 350.808594 319.324219 Z M 350.808594 319.324219 " fill-opacity="1" fill-rule="nonzero"/></g></svg>