<svg xmlns="http://www.w3.org/2000/svg" xmlns:xlink="http://www.w3.org/1999/xlink" width="800" zoomAndPan="magnify" viewBox="0 0 600 449.999984" height="600" preserveAspectRatio="xMidYMid meet" version="1.0"><defs><clipPath id="36c85eee83"><path d="M 1.003906 70.089844 L 599 70.089844 L 599 379.839844 L 1.003906 379.839844 Z M 1.003906 70.089844 " clip-rule="nonzero"/></clipPath><clipPath id="3864407682"><path d="M 1.566406 225.1875 C 1.566406 310.730469 135.25 380.082031 300.148438 380.082031 C 465.042969 380.082031 598.730469 310.730469 598.730469 225.1875 C 598.730469 139.644531 465.042969 70.292969 300.148438 70.292969 C 135.25 70.292969 1.566406 139.648438 1.566406 225.1875 " clip-rule="nonzero"/></clipPath><clipPath id="3edfcae785"><path d="M 1.566406 225.1875 C 1.566406 310.730469 135.25 380.082031 300.148438 380.082031 C 465.042969 380.082031 598.730469 310.730469 598.730469 225.1875 C 598.730469 139.644531 465.042969 70.292969 300.148438 70.292969 C 135.25 70.292969 1.566406 139.648438 1.566406 225.1875 " clip-rule="nonzero"/></clipPath><radialGradient gradientTransform="matrix(1.006965, 0, 0, 0.993035, 180.835024, 124.747735)" gradientUnits="userSpaceOnUse" r="389.371766" cx="0" id="f13acf3e90" cy="0" fx="0" fy="0"><stop stop-opacity="1" stop-color="rgb(68.199158%, 69.799805%, 83.499146%)" offset="0"/><stop stop-opacity="1" stop-color="rgb(68.199158%, 69.799805%, 83.499146%)" offset="0.25"/><stop stop-opacity="1" stop-color="rgb(68.164062%, 69.764709%, 83.473206%)" offset="0.296875"/><stop stop-opacity="1" stop-color="rgb(67.956543%, 69.555664%, 83.317566%)" offset="0.300781"/><stop stop-opacity="1" stop-color="rgb(67.608643%, 69.20929%, 83.059692%)" offset="0.304688"/><stop stop-opacity="1" stop-color="rgb(67.260742%, 68.861389%, 82.800293%)" offset="0.308594"/><stop stop-opacity="1" stop-color="rgb(66.914368%, 68.513489%, 82.542419%)" offset="0.3125"/><stop stop-opacity="1" stop-color="rgb(66.566467%, 68.167114%, 82.28302%)" offset="0.316406"/><stop stop-opacity="1" stop-color="rgb(66.220093%, 67.819214%, 82.025146%)" offset="0.320312"/><stop stop-opacity="1" stop-color="rgb(65.872192%, 67.472839%, 81.765747%)" offset="0.324219"/><stop stop-opacity="1" stop-color="rgb(65.525818%, 67.124939%, 81.506348%)" offset="0.328125"/><stop stop-opacity="1" stop-color="rgb(65.177917%, 66.778564%, 81.248474%)" offset="0.332031"/><stop stop-opacity="1" stop-color="rgb(64.831543%, 66.430664%, 80.989075%)" offset="0.335938"/><stop stop-opacity="1" stop-color="rgb(64.483643%, 66.08429%, 80.731201%)" offset="0.339844"/><stop stop-opacity="1" stop-color="rgb(64.135742%, 65.736389%, 80.471802%)" offset="0.34375"/><stop stop-opacity="1" stop-color="rgb(63.789368%, 65.388489%, 80.213928%)" offset="0.347656"/><stop stop-opacity="1" stop-color="rgb(63.441467%, 65.042114%, 79.954529%)" offset="0.351562"/><stop stop-opacity="1" stop-color="rgb(63.095093%, 64.694214%, 79.696655%)" offset="0.355469"/><stop stop-opacity="1" stop-color="rgb(62.747192%, 64.347839%, 79.437256%)" offset="0.359375"/><stop stop-opacity="1" stop-color="rgb(62.400818%, 63.999939%, 79.179382%)" offset="0.363281"/><stop stop-opacity="1" stop-color="rgb(62.052917%, 63.653564%, 78.919983%)" offset="0.367188"/><stop stop-opacity="1" stop-color="rgb(61.706543%, 63.305664%, 78.662109%)" offset="0.371094"/><stop stop-opacity="1" stop-color="rgb(61.358643%, 62.95929%, 78.40271%)" offset="0.375"/><stop stop-opacity="1" stop-color="rgb(61.010742%, 62.611389%, 78.144836%)" offset="0.378906"/><stop stop-opacity="1" stop-color="rgb(60.664368%, 62.263489%, 77.885437%)" offset="0.382812"/><stop stop-opacity="1" stop-color="rgb(60.316467%, 61.917114%, 77.627563%)" offset="0.386719"/><stop stop-opacity="1" stop-color="rgb(59.970093%, 61.569214%, 77.368164%)" offset="0.390625"/><stop stop-opacity="1" stop-color="rgb(59.622192%, 61.222839%, 77.108765%)" offset="0.394531"/><stop stop-opacity="1" stop-color="rgb(59.275818%, 60.874939%, 76.850891%)" offset="0.398438"/><stop stop-opacity="1" stop-color="rgb(58.927917%, 60.528564%, 76.591492%)" offset="0.402344"/><stop stop-opacity="1" stop-color="rgb(58.581543%, 60.180664%, 76.333618%)" offset="0.40625"/><stop stop-opacity="1" stop-color="rgb(58.233643%, 59.83429%, 76.074219%)" offset="0.410156"/><stop stop-opacity="1" stop-color="rgb(57.885742%, 59.486389%, 75.816345%)" offset="0.414062"/><stop stop-opacity="1" stop-color="rgb(57.539368%, 59.138489%, 75.556946%)" offset="0.417969"/><stop stop-opacity="1" stop-color="rgb(57.191467%, 58.792114%, 75.299072%)" offset="0.421875"/><stop stop-opacity="1" stop-color="rgb(56.845093%, 58.444214%, 75.039673%)" offset="0.425781"/><stop stop-opacity="1" stop-color="rgb(56.497192%, 58.097839%, 74.781799%)" offset="0.429688"/><stop stop-opacity="1" stop-color="rgb(56.150818%, 57.749939%, 74.5224%)" offset="0.433594"/><stop stop-opacity="1" stop-color="rgb(55.802917%, 57.403564%, 74.264526%)" offset="0.4375"/><stop stop-opacity="1" stop-color="rgb(55.456543%, 57.055664%, 74.005127%)" offset="0.441406"/><stop stop-opacity="1" stop-color="rgb(55.108643%, 56.70929%, 73.747253%)" offset="0.445312"/><stop stop-opacity="1" stop-color="rgb(54.760742%, 56.361389%, 73.487854%)" offset="0.449219"/><stop stop-opacity="1" stop-color="rgb(54.414368%, 56.013489%, 73.22998%)" offset="0.453125"/><stop stop-opacity="1" stop-color="rgb(54.066467%, 55.667114%, 72.970581%)" offset="0.457031"/><stop stop-opacity="1" stop-color="rgb(53.720093%, 55.319214%, 72.711182%)" offset="0.460938"/><stop stop-opacity="1" stop-color="rgb(53.372192%, 54.972839%, 72.453308%)" offset="0.464844"/><stop stop-opacity="1" stop-color="rgb(53.025818%, 54.624939%, 72.193909%)" offset="0.46875"/><stop stop-opacity="1" stop-color="rgb(52.677917%, 54.278564%, 71.936035%)" offset="0.472656"/><stop stop-opacity="1" stop-color="rgb(52.331543%, 53.930664%, 71.676636%)" offset="0.476562"/><stop stop-opacity="1" stop-color="rgb(51.983643%, 53.58429%, 71.418762%)" offset="0.480469"/><stop stop-opacity="1" stop-color="rgb(51.635742%, 53.236389%, 71.159363%)" offset="0.484375"/><stop stop-opacity="1" stop-color="rgb(51.289368%, 52.888489%, 70.901489%)" offset="0.488281"/><stop stop-opacity="1" stop-color="rgb(50.941467%, 52.542114%, 70.64209%)" offset="0.492188"/><stop stop-opacity="1" stop-color="rgb(50.595093%, 52.194214%, 70.384216%)" offset="0.496094"/><stop stop-opacity="1" stop-color="rgb(50.247192%, 51.847839%, 70.124817%)" offset="0.5"/><stop stop-opacity="1" stop-color="rgb(49.900818%, 51.499939%, 69.866943%)" offset="0.503906"/><stop stop-opacity="1" stop-color="rgb(49.552917%, 51.153564%, 69.607544%)" offset="0.507812"/><stop stop-opacity="1" stop-color="rgb(49.206543%, 50.805664%, 69.34967%)" offset="0.511719"/><stop stop-opacity="1" stop-color="rgb(48.858643%, 50.45929%, 69.090271%)" offset="0.515625"/><stop stop-opacity="1" stop-color="rgb(48.510742%, 50.111389%, 68.832397%)" offset="0.519531"/><stop stop-opacity="1" stop-color="rgb(48.164368%, 49.763489%, 68.572998%)" offset="0.523438"/><stop stop-opacity="1" stop-color="rgb(47.816467%, 49.417114%, 68.313599%)" offset="0.527344"/><stop stop-opacity="1" stop-color="rgb(47.470093%, 49.069214%, 68.055725%)" offset="0.53125"/><stop stop-opacity="1" stop-color="rgb(47.122192%, 48.722839%, 67.796326%)" offset="0.535156"/><stop stop-opacity="1" stop-color="rgb(46.775818%, 48.374939%, 67.538452%)" offset="0.539062"/><stop stop-opacity="1" stop-color="rgb(46.427917%, 48.028564%, 67.279053%)" offset="0.542969"/><stop stop-opacity="1" stop-color="rgb(46.081543%, 47.680664%, 67.021179%)" offset="0.546875"/><stop stop-opacity="1" stop-color="rgb(45.733643%, 47.33429%, 66.76178%)" offset="0.550781"/><stop stop-opacity="1" stop-color="rgb(45.385742%, 46.986389%, 66.503906%)" offset="0.554688"/><stop stop-opacity="1" stop-color="rgb(45.039368%, 46.638489%, 66.244507%)" offset="0.558594"/><stop stop-opacity="1" stop-color="rgb(44.691467%, 46.292114%, 65.986633%)" offset="0.5625"/><stop stop-opacity="1" stop-color="rgb(44.345093%, 45.944214%, 65.727234%)" offset="0.566406"/><stop stop-opacity="1" stop-color="rgb(43.997192%, 45.597839%, 65.46936%)" offset="0.570312"/><stop stop-opacity="1" stop-color="rgb(43.650818%, 45.249939%, 65.209961%)" offset="0.574219"/><stop stop-opacity="1" stop-color="rgb(43.302917%, 44.903564%, 64.952087%)" offset="0.578125"/><stop stop-opacity="1" stop-color="rgb(42.956543%, 44.555664%, 64.692688%)" offset="0.582031"/><stop stop-opacity="1" stop-color="rgb(42.608643%, 44.20929%, 64.434814%)" offset="0.585938"/><stop stop-opacity="1" stop-color="rgb(42.260742%, 43.861389%, 64.175415%)" offset="0.589844"/><stop stop-opacity="1" stop-color="rgb(41.914368%, 43.513489%, 63.916016%)" offset="0.59375"/><stop stop-opacity="1" stop-color="rgb(41.566467%, 43.167114%, 63.658142%)" offset="0.597656"/><stop stop-opacity="1" stop-color="rgb(41.220093%, 42.819214%, 63.398743%)" offset="0.601562"/><stop stop-opacity="1" stop-color="rgb(40.872192%, 42.472839%, 63.140869%)" offset="0.605469"/><stop stop-opacity="1" stop-color="rgb(40.525818%, 42.124939%, 62.88147%)" offset="0.609375"/><stop stop-opacity="1" stop-color="rgb(40.177917%, 41.778564%, 62.623596%)" offset="0.613281"/><stop stop-opacity="1" stop-color="rgb(39.831543%, 41.430664%, 62.364197%)" offset="0.617188"/><stop stop-opacity="1" stop-color="rgb(39.483643%, 41.08429%, 62.106323%)" offset="0.621094"/><stop stop-opacity="1" stop-color="rgb(39.135742%, 40.736389%, 61.846924%)" offset="0.625"/><stop stop-opacity="1" stop-color="rgb(38.789368%, 40.388489%, 61.58905%)" offset="0.628906"/><stop stop-opacity="1" stop-color="rgb(38.441467%, 40.042114%, 61.329651%)" offset="0.632812"/><stop stop-opacity="1" stop-color="rgb(38.095093%, 39.694214%, 61.071777%)" offset="0.636719"/><stop stop-opacity="1" stop-color="rgb(37.747192%, 39.347839%, 60.812378%)" offset="0.640625"/><stop stop-opacity="1" stop-color="rgb(37.400818%, 38.999939%, 60.554504%)" offset="0.644531"/><stop stop-opacity="1" stop-color="rgb(37.052917%, 38.653564%, 60.295105%)" offset="0.648438"/><stop stop-opacity="1" stop-color="rgb(36.706543%, 38.305664%, 60.037231%)" offset="0.652344"/><stop stop-opacity="1" stop-color="rgb(36.358643%, 37.95929%, 59.777832%)" offset="0.65625"/><stop stop-opacity="1" stop-color="rgb(36.010742%, 37.611389%, 59.518433%)" offset="0.660156"/><stop stop-opacity="1" stop-color="rgb(35.664368%, 37.263489%, 59.260559%)" offset="0.664062"/><stop stop-opacity="1" stop-color="rgb(35.316467%, 36.917114%, 59.00116%)" offset="0.667969"/><stop stop-opacity="1" stop-color="rgb(34.970093%, 36.569214%, 58.743286%)" offset="0.671875"/><stop stop-opacity="1" stop-color="rgb(34.622192%, 36.222839%, 58.483887%)" offset="0.675781"/><stop stop-opacity="1" stop-color="rgb(34.275818%, 35.874939%, 58.226013%)" offset="0.679688"/><stop stop-opacity="1" stop-color="rgb(33.927917%, 35.528564%, 57.966614%)" offset="0.683594"/><stop stop-opacity="1" stop-color="rgb(33.581543%, 35.180664%, 57.70874%)" offset="0.6875"/><stop stop-opacity="1" stop-color="rgb(33.233643%, 34.83429%, 57.449341%)" offset="0.691406"/><stop stop-opacity="1" stop-color="rgb(32.885742%, 34.486389%, 57.191467%)" offset="0.695312"/><stop stop-opacity="1" stop-color="rgb(32.539368%, 34.138489%, 56.932068%)" offset="0.699219"/><stop stop-opacity="1" stop-color="rgb(32.191467%, 33.792114%, 56.674194%)" offset="0.703125"/><stop stop-opacity="1" stop-color="rgb(31.845093%, 33.444214%, 56.414795%)" offset="0.707031"/><stop stop-opacity="1" stop-color="rgb(31.497192%, 33.097839%, 56.156921%)" offset="0.710938"/><stop stop-opacity="1" stop-color="rgb(31.150818%, 32.749939%, 55.897522%)" offset="0.714844"/><stop stop-opacity="1" stop-color="rgb(30.802917%, 32.403564%, 55.639648%)" offset="0.71875"/><stop stop-opacity="1" stop-color="rgb(30.456543%, 32.055664%, 55.380249%)" offset="0.722656"/><stop stop-opacity="1" stop-color="rgb(30.108643%, 31.70929%, 55.122375%)" offset="0.726562"/><stop stop-opacity="1" stop-color="rgb(29.760742%, 31.361389%, 54.862976%)" offset="0.730469"/><stop stop-opacity="1" stop-color="rgb(29.414368%, 31.013489%, 54.603577%)" offset="0.734375"/><stop stop-opacity="1" stop-color="rgb(29.066467%, 30.667114%, 54.345703%)" offset="0.738281"/><stop stop-opacity="1" stop-color="rgb(28.720093%, 30.319214%, 54.086304%)" offset="0.742188"/><stop stop-opacity="1" stop-color="rgb(28.372192%, 29.972839%, 53.82843%)" offset="0.746094"/><stop stop-opacity="1" stop-color="rgb(28.199768%, 29.798889%, 53.69873%)" offset="1"/></radialGradient></defs><g clip-path="url(#36c85eee83)"><g clip-path="url(#3864407682)"><g clip-path="url(#3edfcae785)"><path fill="url(#f13acf3e90)" d="M 1.566406 70.292969 L 1.566406 379.839844 L 598.730469 379.839844 L 598.730469 70.292969 Z M 1.566406 70.292969 " fill-rule="nonzero"/></g></g></g><path fill="#777bb3" d="M 300.148438 368.582031 C 458.605469 368.582031 587.066406 304.382812 587.066406 225.1875 C 587.066406 145.996094 458.605469 81.796875 300.148438 81.796875 C 141.6875 81.796875 13.226562 145.996094 13.226562 225.1875 C 13.226562 304.382812 141.6875 368.582031 300.148438 368.582031 " fill-opacity="1" fill-rule="nonzero"/><path fill="#000000" d="M 163.78125 242.964844 C 176.8125 242.964844 186.539062 240.59375 192.691406 235.921875 C 198.78125 231.300781 202.988281 223.289062 205.191406 212.117188 C 207.246094 201.675781 206.464844 194.382812 202.863281 190.445312 C 199.183594 186.425781 191.230469 184.390625 179.222656 184.390625 L 158.398438 184.390625 L 146.855469 242.964844 Z M 95.679688 315.121094 C 94.714844 315.121094 93.796875 314.695312 93.183594 313.957031 C 92.875 313.589844 92.660156 313.175781 92.542969 312.710938 C 92.421875 312.25 92.410156 311.785156 92.503906 311.316406 L 123.09375 156.09375 C 123.167969 155.726562 123.296875 155.386719 123.492188 155.066406 C 123.683594 154.75 123.925781 154.472656 124.214844 154.238281 C 124.503906 154 124.828125 153.820312 125.179688 153.695312 C 125.535156 153.570312 125.898438 153.507812 126.273438 153.507812 L 192.210938 153.507812 C 212.933594 153.507812 228.355469 159.046875 238.050781 170 C 247.796875 181.003906 250.804688 196.382812 246.996094 215.710938 C 245.445312 223.585938 242.777344 230.898438 239.070312 237.449219 C 235.355469 244.003906 230.445312 250.066406 224.480469 255.476562 C 217.332031 262.074219 209.246094 266.855469 200.464844 269.667969 C 191.824219 272.445312 180.722656 273.851562 167.476562 273.851562 L 140.777344 273.851562 L 133.152344 312.535156 C 133.082031 312.902344 132.949219 313.242188 132.757812 313.558594 C 132.566406 313.878906 132.324219 314.15625 132.035156 314.390625 C 131.742188 314.628906 131.421875 314.808594 131.066406 314.933594 C 130.714844 315.058594 130.347656 315.121094 129.972656 315.121094 L 95.675781 315.121094 Z M 95.679688 315.121094 " fill-opacity="1" fill-rule="nonzero"/><path fill="#ffffff" d="M 161.070312 187.582031 L 179.222656 187.582031 C 193.714844 187.582031 198.753906 190.71875 200.464844 192.589844 C 203.300781 195.691406 203.835938 202.234375 202.011719 211.511719 C 199.964844 221.894531 196.164062 229.257812 190.71875 233.390625 C 185.144531 237.625 176.082031 239.769531 163.785156 239.769531 L 150.792969 239.769531 L 161.078125 187.582031 Z M 192.207031 150.308594 L 126.277344 150.308594 C 125.523438 150.308594 124.792969 150.433594 124.085938 150.683594 C 123.378906 150.933594 122.734375 151.296875 122.15625 151.765625 C 121.574219 152.238281 121.09375 152.792969 120.707031 153.429688 C 120.324219 154.066406 120.058594 154.75 119.917969 155.476562 L 89.324219 310.714844 C 89.234375 311.175781 89.195312 311.640625 89.207031 312.113281 C 89.222656 312.585938 89.289062 313.046875 89.40625 313.503906 C 89.523438 313.960938 89.691406 314.398438 89.90625 314.820312 C 90.121094 315.242188 90.382812 315.632812 90.6875 315.996094 C 90.988281 316.359375 91.332031 316.6875 91.707031 316.976562 C 92.085938 317.265625 92.488281 317.511719 92.921875 317.710938 C 93.351562 317.910156 93.800781 318.0625 94.269531 318.167969 C 94.734375 318.269531 95.207031 318.320312 95.683594 318.320312 L 129.972656 318.320312 C 130.726562 318.320312 131.453125 318.195312 132.164062 317.945312 C 132.871094 317.695312 133.515625 317.335938 134.09375 316.863281 C 134.675781 316.390625 135.15625 315.835938 135.542969 315.199219 C 135.925781 314.5625 136.191406 313.878906 136.332031 313.152344 L 143.449219 277.050781 L 167.476562 277.050781 C 181.066406 277.050781 192.503906 275.589844 201.472656 272.710938 C 210.695312 269.753906 219.183594 264.746094 226.695312 257.816406 C 232.90625 252.183594 238.035156 245.855469 241.898438 239.011719 C 245.765625 232.171875 248.5625 224.535156 250.179688 216.328125 C 254.191406 195.980469 250.933594 179.6875 240.496094 167.90625 C 230.15625 156.234375 213.914062 150.316406 192.214844 150.316406 M 142.933594 246.167969 L 163.789062 246.167969 C 177.613281 246.167969 187.910156 243.601562 194.675781 238.464844 C 201.441406 233.324219 206.007812 224.75 208.378906 212.734375 C 210.648438 201.199219 209.613281 193.058594 205.28125 188.316406 C 200.945312 183.570312 192.253906 181.203125 179.230469 181.203125 L 155.738281 181.203125 L 142.933594 246.167969 M 192.214844 156.707031 C 212.050781 156.707031 226.519531 161.839844 235.617188 172.105469 C 244.710938 182.371094 247.449219 196.707031 243.820312 215.105469 C 242.328125 222.683594 239.800781 229.617188 236.246094 235.894531 C 232.6875 242.175781 228.035156 247.921875 222.289062 253.128906 C 215.441406 259.449219 207.835938 263.949219 199.46875 266.636719 C 191.097656 269.324219 180.4375 270.664062 167.480469 270.664062 L 138.109375 270.664062 L 129.976562 311.929688 L 95.6875 311.929688 L 126.285156 156.71875 L 192.21875 156.71875 " fill-opacity="1" fill-rule="nonzero"/><path fill="#000000" d="M 325.613281 273.847656 C 324.644531 273.847656 323.726562 273.421875 323.113281 272.683594 C 322.5 271.949219 322.246094 270.980469 322.433594 270.042969 L 335.964844 201.363281 C 337.25 194.832031 336.933594 190.140625 335.070312 188.160156 C 333.929688 186.949219 330.503906 184.917969 320.375 184.917969 L 295.859375 184.917969 L 278.84375 271.261719 C 278.773438 271.625 278.640625 271.964844 278.449219 272.285156 C 278.257812 272.605469 278.015625 272.882812 277.726562 273.117188 C 277.433594 273.351562 277.113281 273.535156 276.757812 273.660156 C 276.40625 273.785156 276.039062 273.847656 275.664062 273.847656 L 241.648438 273.847656 C 241.40625 273.847656 241.171875 273.820312 240.9375 273.769531 C 240.707031 273.71875 240.480469 273.640625 240.265625 273.542969 C 240.046875 273.441406 239.847656 273.320312 239.65625 273.175781 C 239.46875 273.03125 239.296875 272.867188 239.148438 272.683594 C 238.996094 272.503906 238.863281 272.308594 238.757812 272.097656 C 238.648438 271.886719 238.566406 271.667969 238.507812 271.4375 C 238.449219 271.210938 238.414062 270.980469 238.40625 270.742188 C 238.402344 270.507812 238.421875 270.273438 238.464844 270.042969 L 269.058594 114.820312 C 269.128906 114.453125 269.261719 114.113281 269.453125 113.792969 C 269.648438 113.476562 269.886719 113.199219 270.179688 112.964844 C 270.46875 112.726562 270.789062 112.546875 271.144531 112.421875 C 271.5 112.296875 271.863281 112.234375 272.238281 112.234375 L 306.257812 112.234375 C 306.496094 112.234375 306.730469 112.257812 306.964844 112.3125 C 307.199219 112.363281 307.421875 112.4375 307.640625 112.539062 C 307.855469 112.640625 308.058594 112.761719 308.246094 112.90625 C 308.433594 113.050781 308.605469 113.214844 308.757812 113.394531 C 308.910156 113.578125 309.039062 113.773438 309.148438 113.984375 C 309.253906 114.195312 309.339844 114.414062 309.398438 114.640625 C 309.457031 114.871094 309.488281 115.101562 309.496094 115.335938 C 309.503906 115.574219 309.484375 115.808594 309.4375 116.039062 L 302.054688 153.503906 L 328.429688 153.503906 C 348.523438 153.503906 362.144531 156.996094 370.082031 164.183594 C 378.183594 171.515625 380.695312 183.234375 377.585938 199.03125 L 363.351562 271.261719 C 363.28125 271.628906 363.148438 271.96875 362.957031 272.289062 C 362.761719 272.605469 362.523438 272.882812 362.230469 273.121094 C 361.941406 273.355469 361.621094 273.535156 361.265625 273.660156 C 360.914062 273.785156 360.546875 273.847656 360.171875 273.847656 Z M 325.613281 273.847656 " fill-opacity="1" fill-rule="nonzero"/><path fill="#ffffff" d="M 306.257812 109.039062 L 272.242188 109.039062 C 271.488281 109.039062 270.757812 109.164062 270.050781 109.414062 C 269.34375 109.664062 268.699219 110.027344 268.121094 110.5 C 267.539062 110.96875 267.058594 111.523438 266.671875 112.160156 C 266.289062 112.800781 266.023438 113.480469 265.878906 114.210938 L 235.289062 269.433594 C 235.195312 269.894531 235.15625 270.363281 235.171875 270.835938 C 235.183594 271.304688 235.25 271.769531 235.367188 272.226562 C 235.484375 272.683594 235.652344 273.121094 235.867188 273.542969 C 236.085938 273.960938 236.34375 274.351562 236.648438 274.71875 C 236.953125 275.082031 237.292969 275.40625 237.671875 275.695312 C 238.046875 275.984375 238.453125 276.230469 238.886719 276.429688 C 239.316406 276.632812 239.765625 276.785156 240.234375 276.886719 C 240.699219 276.992188 241.171875 277.042969 241.648438 277.042969 L 275.667969 277.042969 C 276.417969 277.042969 277.148438 276.917969 277.855469 276.667969 C 278.5625 276.414062 279.207031 276.054688 279.789062 275.582031 C 280.367188 275.109375 280.851562 274.558594 281.234375 273.917969 C 281.621094 273.28125 281.882812 272.597656 282.027344 271.871094 L 298.53125 188.113281 L 320.378906 188.113281 C 330.492188 188.113281 332.613281 190.246094 332.699219 190.335938 C 333.3125 190.984375 334.117188 194 332.789062 200.75 L 319.253906 269.433594 C 319.164062 269.894531 319.125 270.363281 319.140625 270.835938 C 319.152344 271.304688 319.21875 271.769531 319.335938 272.226562 C 319.453125 272.683594 319.621094 273.121094 319.835938 273.542969 C 320.050781 273.960938 320.3125 274.351562 320.617188 274.71875 C 320.921875 275.082031 321.261719 275.40625 321.636719 275.695312 C 322.015625 275.984375 322.421875 276.230469 322.851562 276.433594 C 323.285156 276.632812 323.734375 276.785156 324.199219 276.886719 C 324.667969 276.992188 325.136719 277.042969 325.617188 277.042969 L 360.175781 277.042969 C 360.925781 277.042969 361.65625 276.917969 362.363281 276.667969 C 363.070312 276.414062 363.714844 276.054688 364.296875 275.582031 C 364.875 275.109375 365.359375 274.558594 365.742188 273.917969 C 366.128906 273.28125 366.390625 272.597656 366.535156 271.871094 L 380.769531 199.636719 C 384.109375 182.683594 381.25 169.960938 372.28125 161.828125 C 363.71875 154.078125 349.378906 150.308594 328.433594 150.308594 L 305.988281 150.308594 L 312.625 116.648438 C 312.714844 116.183594 312.753906 115.71875 312.738281 115.246094 C 312.726562 114.777344 312.660156 114.3125 312.542969 113.855469 C 312.425781 113.398438 312.257812 112.960938 312.042969 112.539062 C 311.828125 112.117188 311.566406 111.726562 311.261719 111.363281 C 310.957031 111 310.617188 110.671875 310.242188 110.382812 C 309.863281 110.09375 309.460938 109.847656 309.027344 109.648438 C 308.59375 109.449219 308.144531 109.296875 307.679688 109.191406 C 307.210938 109.089844 306.742188 109.039062 306.261719 109.039062 M 306.261719 115.429688 L 298.128906 156.695312 L 328.4375 156.695312 C 347.503906 156.695312 360.65625 159.980469 367.898438 166.535156 C 375.136719 173.089844 377.304688 183.722656 374.410156 198.417969 L 360.179688 270.652344 L 325.621094 270.652344 L 339.152344 201.972656 C 340.691406 194.160156 340.125 188.828125 337.453125 185.988281 C 334.777344 183.148438 329.085938 181.722656 320.382812 181.722656 L 293.191406 181.722656 L 275.667969 270.652344 L 241.648438 270.652344 L 272.242188 115.429688 L 306.257812 115.429688 " fill-opacity="1" fill-rule="nonzero"/><path fill="#000000" d="M 431.414062 242.964844 C 444.441406 242.964844 454.171875 240.59375 460.324219 235.921875 C 466.414062 231.300781 470.617188 223.292969 472.824219 212.117188 C 474.878906 201.675781 474.09375 194.382812 470.496094 190.445312 C 466.816406 186.425781 458.863281 184.390625 446.851562 184.390625 L 426.03125 184.390625 L 414.488281 242.964844 Z M 363.3125 315.117188 C 362.34375 315.117188 361.425781 314.691406 360.8125 313.953125 C 360.503906 313.585938 360.289062 313.171875 360.171875 312.707031 C 360.050781 312.246094 360.039062 311.78125 360.128906 311.3125 L 390.722656 156.089844 C 390.792969 155.722656 390.925781 155.382812 391.117188 155.066406 C 391.3125 154.746094 391.550781 154.46875 391.84375 154.234375 C 392.132812 153.996094 392.457031 153.816406 392.808594 153.691406 C 393.164062 153.566406 393.527344 153.503906 393.902344 153.503906 L 459.839844 153.503906 C 480.5625 153.503906 495.984375 159.042969 505.679688 169.996094 C 515.425781 181 518.433594 196.378906 514.625 215.707031 C 513.070312 223.582031 510.40625 230.894531 506.695312 237.445312 C 502.980469 244 498.074219 250.066406 492.105469 255.476562 C 484.960938 262.070312 476.875 266.851562 468.09375 269.664062 C 459.449219 272.441406 448.351562 273.851562 435.101562 273.851562 L 408.382812 273.851562 L 400.761719 312.535156 C 400.691406 312.898438 400.558594 313.238281 400.367188 313.558594 C 400.175781 313.875 399.933594 314.152344 399.644531 314.390625 C 399.351562 314.625 399.03125 314.804688 398.675781 314.929688 C 398.324219 315.058594 397.957031 315.121094 397.582031 315.117188 L 363.292969 315.117188 Z M 363.3125 315.117188 " fill-opacity="1" fill-rule="nonzero"/><path fill="#ffffff" d="M 428.703125 187.582031 L 446.855469 187.582031 C 461.347656 187.582031 466.382812 190.71875 468.09375 192.589844 C 470.933594 195.691406 471.46875 202.234375 469.644531 211.507812 C 467.59375 221.894531 463.792969 229.257812 458.351562 233.390625 C 452.773438 237.625 443.710938 239.769531 431.417969 239.769531 L 418.421875 239.769531 Z M 459.839844 150.308594 L 393.902344 150.308594 C 393.152344 150.308594 392.421875 150.433594 391.714844 150.683594 C 391.007812 150.933594 390.363281 151.296875 389.78125 151.765625 C 389.203125 152.238281 388.71875 152.792969 388.335938 153.429688 C 387.949219 154.066406 387.6875 154.75 387.542969 155.476562 L 356.949219 310.714844 C 356.859375 311.175781 356.820312 311.640625 356.832031 312.113281 C 356.847656 312.585938 356.910156 313.046875 357.027344 313.503906 C 357.148438 313.960938 357.3125 314.398438 357.53125 314.820312 C 357.746094 315.242188 358.003906 315.632812 358.308594 315.996094 C 358.613281 316.359375 358.953125 316.6875 359.332031 316.976562 C 359.707031 317.265625 360.113281 317.511719 360.542969 317.710938 C 360.976562 317.910156 361.425781 318.0625 361.890625 318.167969 C 362.359375 318.269531 362.832031 318.320312 363.308594 318.320312 L 397.597656 318.320312 C 398.347656 318.320312 399.078125 318.195312 399.785156 317.945312 C 400.492188 317.695312 401.136719 317.335938 401.71875 316.863281 C 402.296875 316.390625 402.78125 315.835938 403.164062 315.199219 C 403.550781 314.5625 403.8125 313.878906 403.957031 313.152344 L 411.070312 277.050781 L 435.101562 277.050781 C 448.6875 277.050781 460.125 275.589844 469.097656 272.710938 C 478.320312 269.753906 486.808594 264.746094 494.320312 257.816406 C 500.53125 252.183594 505.644531 245.855469 509.523438 239.011719 C 513.398438 232.171875 516.1875 224.535156 517.804688 216.328125 C 521.816406 195.980469 518.554688 179.6875 508.117188 167.902344 C 497.78125 156.234375 481.535156 150.316406 459.835938 150.316406 M 410.558594 246.167969 L 431.414062 246.167969 C 445.234375 246.167969 455.535156 243.601562 462.300781 238.464844 C 469.0625 233.324219 473.628906 224.75 476 212.734375 C 478.269531 201.199219 477.238281 193.058594 472.902344 188.316406 C 468.566406 183.570312 459.878906 181.203125 446.855469 181.203125 L 423.359375 181.203125 L 410.558594 246.167969 M 459.839844 156.707031 C 479.671875 156.707031 494.144531 161.839844 503.238281 172.105469 C 512.332031 182.371094 515.070312 196.707031 511.441406 215.105469 C 509.949219 222.683594 507.421875 229.617188 503.867188 235.894531 C 500.3125 242.175781 495.65625 247.921875 489.914062 253.128906 C 483.066406 259.449219 475.460938 263.949219 467.089844 266.636719 C 458.71875 269.324219 448.0625 270.664062 435.101562 270.664062 L 405.730469 270.664062 L 397.601562 311.929688 L 363.3125 311.929688 L 393.90625 156.707031 L 459.839844 156.707031 " fill-opacity="1" fill-rule="nonzero"/></svg>