<svg xmlns="http://www.w3.org/2000/svg" xmlns:xlink="http://www.w3.org/1999/xlink" width="800" zoomAndPan="magnify" viewBox="0 0 600 449.999984" height="600" preserveAspectRatio="xMidYMid meet" version="1.0"><defs><clipPath id="ac145795a9"><path d="M 58.390625 10 L 541.390625 10 L 541.390625 440 L 58.390625 440 Z M 58.390625 10 " clip-rule="nonzero"/></clipPath></defs><g clip-path="url(#ac145795a9)"><path fill="#00d8ff" d="M 455.339844 149.417969 C 450.199219 147.65625 445.019531 146.019531 439.800781 144.519531 C 440.675781 140.933594 441.484375 137.394531 442.199219 133.914062 C 453.964844 76.78125 446.273438 30.753906 420.003906 15.601562 C 394.820312 1.074219 353.628906 16.222656 312.03125 52.441406 C 307.929688 56.015625 303.921875 59.695312 300.007812 63.476562 C 297.386719 60.960938 294.71875 58.496094 292.007812 56.085938 C 248.410156 17.355469 204.710938 1.035156 178.46875 16.234375 C 153.304688 30.804688 145.855469 74.074219 156.445312 128.21875 C 157.5 133.582031 158.691406 138.917969 160.015625 144.21875 C 153.828125 145.976562 147.859375 147.847656 142.148438 149.839844 C 91.03125 167.671875 58.390625 195.613281 58.390625 224.59375 C 58.390625 254.527344 93.433594 284.550781 146.671875 302.753906 C 150.988281 304.222656 155.339844 305.585938 159.722656 306.839844 C 158.300781 312.550781 157.035156 318.300781 155.933594 324.082031 C 145.835938 377.285156 153.722656 419.53125 178.816406 434.011719 C 204.738281 448.964844 248.242188 433.597656 290.601562 396.550781 C 294.035156 393.539062 297.394531 390.441406 300.675781 387.261719 C 304.914062 391.355469 309.265625 395.328125 313.726562 399.175781 C 354.757812 434.5 395.28125 448.761719 420.355469 434.242188 C 446.25 419.246094 454.664062 373.863281 443.738281 318.644531 C 442.878906 314.320312 441.914062 310.015625 440.84375 305.738281 C 443.898438 304.832031 446.898438 303.898438 449.820312 302.929688 C 505.167969 284.585938 541.179688 254.925781 541.179688 224.59375 C 541.179688 195.503906 507.480469 167.375 455.339844 149.417969 Z M 443.335938 283.347656 C 440.695312 284.21875 437.988281 285.0625 435.226562 285.882812 C 429.117188 266.53125 420.871094 245.953125 410.777344 224.695312 C 420.410156 203.9375 428.335938 183.625 434.277344 164.398438 C 439.214844 165.828125 444.007812 167.335938 448.628906 168.925781 C 493.304688 184.316406 520.554688 207.0625 520.554688 224.59375 C 520.554688 243.265625 491.125 267.503906 443.335938 283.347656 Z M 423.507812 322.652344 C 428.339844 347.066406 429.027344 369.140625 425.828125 386.402344 C 422.953125 401.90625 417.171875 412.246094 410.019531 416.386719 C 394.804688 425.199219 362.269531 413.746094 327.175781 383.535156 C 323.027344 379.957031 318.980469 376.261719 315.039062 372.460938 C 328.640625 357.574219 342.238281 340.273438 355.507812 321.054688 C 378.847656 318.980469 400.898438 315.59375 420.894531 310.96875 C 421.855469 314.84375 422.726562 318.738281 423.507812 322.652344 Z M 222.984375 414.863281 C 208.117188 420.113281 196.277344 420.265625 189.121094 416.136719 C 173.894531 407.351562 167.5625 373.429688 176.199219 327.929688 C 177.222656 322.550781 178.398438 317.207031 179.722656 311.894531 C 199.496094 316.269531 221.386719 319.417969 244.78125 321.316406 C 258.140625 340.121094 272.128906 357.40625 286.226562 372.539062 C 283.230469 375.441406 280.164062 378.265625 277.03125 381.015625 C 258.296875 397.394531 239.527344 409.019531 222.984375 414.863281 Z M 153.34375 283.230469 C 129.800781 275.179688 110.359375 264.71875 97.035156 253.300781 C 85.058594 243.042969 79.015625 232.855469 79.015625 224.59375 C 79.015625 207.003906 105.222656 184.570312 148.9375 169.324219 C 154.242188 167.476562 159.792969 165.730469 165.554688 164.09375 C 171.597656 183.753906 179.523438 204.308594 189.085938 225.09375 C 179.398438 246.1875 171.359375 267.074219 165.257812 286.964844 C 161.257812 285.816406 157.285156 284.574219 153.34375 283.230469 Z M 176.6875 124.253906 C 167.613281 77.867188 173.640625 42.875 188.804688 34.089844 C 204.957031 24.738281 240.671875 38.074219 278.316406 71.515625 C 280.769531 73.699219 283.183594 75.929688 285.558594 78.203125 C 271.53125 93.273438 257.671875 110.425781 244.429688 129.121094 C 221.726562 131.226562 199.992188 134.609375 180.007812 139.136719 C 178.777344 134.207031 177.667969 129.246094 176.6875 124.257812 Z M 384.941406 175.703125 C 380.222656 167.546875 375.328125 159.492188 370.261719 151.546875 C 385.664062 153.496094 400.421875 156.082031 414.28125 159.246094 C 410.121094 172.585938 404.9375 186.535156 398.832031 200.835938 C 394.371094 192.367188 389.738281 183.988281 384.941406 175.703125 Z M 300.015625 92.949219 C 309.527344 103.261719 319.054688 114.769531 328.425781 127.261719 C 309.417969 126.363281 290.375 126.359375 271.367188 127.25 C 280.746094 114.875 290.355469 103.378906 300.015625 92.949219 Z M 214.546875 175.84375 C 209.808594 184.0625 205.265625 192.390625 200.917969 200.820312 C 194.910156 186.570312 189.773438 172.558594 185.578125 159.027344 C 199.351562 155.941406 214.039062 153.421875 229.347656 151.507812 C 224.222656 159.503906 219.289062 167.617188 214.546875 175.84375 Z M 229.785156 299.144531 C 213.972656 297.378906 199.0625 294.988281 185.292969 291.988281 C 189.554688 278.214844 194.804688 263.90625 200.941406 249.347656 C 205.304688 257.785156 209.871094 266.117188 214.625 274.339844 C 219.519531 282.792969 224.585938 291.070312 229.785156 299.144531 Z M 300.585938 357.691406 C 290.808594 347.140625 281.058594 335.464844 271.539062 322.914062 C 280.78125 323.273438 290.207031 323.460938 299.785156 323.460938 C 309.625 323.460938 319.351562 323.238281 328.925781 322.8125 C 319.527344 335.59375 310.035156 347.28125 300.585938 357.691406 Z M 399.027344 248.605469 C 405.480469 263.320312 410.917969 277.558594 415.238281 291.09375 C 401.238281 294.289062 386.125 296.863281 370.203125 298.777344 C 375.304688 290.683594 380.246094 282.488281 385.023438 274.199219 C 389.878906 265.773438 394.550781 257.238281 399.027344 248.605469 Z M 367.160156 263.890625 C 359.84375 276.597656 352.121094 289.066406 343.996094 301.273438 C 329.28125 302.316406 314.535156 302.835938 299.785156 302.828125 C 284.757812 302.828125 270.144531 302.359375 256.074219 301.445312 C 247.738281 289.269531 239.867188 276.777344 232.476562 264.003906 C 225.121094 251.296875 218.25 238.316406 211.875 225.085938 C 218.230469 211.855469 225.082031 198.867188 232.414062 186.148438 L 232.414062 186.152344 C 239.742188 173.429688 247.550781 160.996094 255.820312 148.867188 C 270.179688 147.78125 284.902344 147.214844 299.78125 147.214844 L 299.785156 147.214844 C 314.730469 147.214844 329.472656 147.785156 343.828125 148.882812 C 352.015625 160.988281 359.777344 173.382812 367.089844 186.039062 C 374.445312 198.726562 381.386719 211.652344 387.902344 224.792969 C 381.453125 238.066406 374.535156 251.109375 367.160156 263.890625 Z M 409.703125 33.476562 C 425.871094 42.804688 432.15625 80.417969 422 129.746094 C 421.351562 132.894531 420.625 136.101562 419.832031 139.351562 C 399.800781 134.726562 378.050781 131.285156 355.277344 129.148438 C 342.011719 110.25 328.265625 93.066406 314.464844 78.191406 C 318.082031 74.703125 321.785156 71.304688 325.570312 68.003906 C 361.214844 36.972656 394.527344 24.71875 409.703125 33.476562 Z M 299.785156 181.460938 C 323.59375 181.460938 342.894531 200.773438 342.894531 224.59375 C 342.894531 248.414062 323.59375 267.722656 299.785156 267.722656 C 275.976562 267.722656 256.671875 248.414062 256.671875 224.59375 C 256.671875 200.773438 275.976562 181.460938 299.785156 181.460938 Z M 299.785156 181.460938 " fill-opacity="1" fill-rule="nonzero"/></g></svg>