<svg xmlns="http://www.w3.org/2000/svg" xmlns:xlink="http://www.w3.org/1999/xlink" width="800" zoomAndPan="magnify" viewBox="0 0 600 449.999984" height="600" preserveAspectRatio="xMidYMid meet" version="1.0"><defs><clipPath id="bceb6d630f"><path d="M 75 0 L 525 0 L 525 450 L 75 450 Z M 75 0 " clip-rule="nonzero"/></clipPath></defs><g clip-path="url(#bceb6d630f)"><path fill="#f06292" d="M 299.910156 0.359375 C 424.230469 0.359375 525 101.132812 525 225.449219 C 525 349.757812 424.230469 450.542969 299.910156 450.542969 C 175.601562 450.542969 74.820312 349.769531 74.820312 225.449219 C 74.832031 101.132812 175.601562 0.359375 299.910156 0.359375 Z M 299.910156 0.359375 " fill-opacity="1" fill-rule="evenodd"/></g><path fill="#ffffff" d="M 441.101562 96.699219 C 430.90625 56.71875 364.625 43.578125 301.894531 65.863281 C 264.5625 79.128906 224.144531 99.949219 195.078125 127.128906 C 160.523438 159.449219 155.019531 187.578125 157.285156 199.332031 C 165.292969 240.800781 222.125 267.914062 245.480469 288.035156 L 245.480469 288.15625 C 238.589844 291.550781 188.175781 317.0625 176.378906 343.148438 C 163.929688 370.667969 178.363281 390.417969 187.917969 393.078125 C 217.523438 401.3125 247.894531 386.503906 264.226562 362.152344 C 279.980469 338.648438 278.671875 308.3125 271.828125 293.210938 C 281.265625 290.71875 292.285156 289.601562 306.269531 291.238281 C 345.753906 295.847656 353.503906 320.503906 352.015625 330.824219 C 350.539062 341.144531 342.25 346.816406 339.484375 348.53125 C 336.710938 350.246094 335.875 350.84375 336.101562 352.105469 C 336.441406 353.953125 337.714844 353.886719 340.082031 353.492188 C 343.332031 352.941406 360.8125 345.101562 361.566406 326.050781 C 362.515625 301.871094 339.351562 274.828125 298.320312 275.527344 C 281.425781 275.820312 270.800781 277.421875 263.121094 280.285156 C 262.554688 279.644531 261.96875 279 261.382812 278.355469 C 236.019531 251.289062 189.125 232.148438 191.109375 195.765625 C 191.832031 182.539062 196.433594 147.710938 281.210938 105.460938 C 350.660156 70.851562 406.261719 80.378906 415.871094 101.480469 C 429.597656 131.640625 386.152344 187.679688 314.03125 195.765625 C 286.546875 198.847656 272.074219 188.199219 268.476562 184.230469 C 264.6875 180.054688 264.125 179.863281 262.714844 180.652344 C 260.414062 181.929688 261.867188 185.617188 262.714844 187.816406 C 264.867188 193.421875 273.710938 203.355469 288.765625 208.308594 C 302.019531 212.660156 334.285156 215.042969 373.308594 199.949219 C 417 183.035156 451.128906 136.003906 441.101562 96.699219 Z M 255.179688 300.429688 C 258.449219 312.542969 258.089844 323.84375 254.71875 334.070312 C 254.347656 335.210938 253.929688 336.328125 253.476562 337.445312 C 253.027344 338.550781 252.542969 339.652344 252.023438 340.738281 C 249.417969 346.148438 245.910156 351.214844 241.625 355.894531 C 228.542969 370.160156 210.269531 375.550781 202.445312 371.007812 C 193.984375 366.101562 198.226562 345.992188 213.382812 329.953125 C 229.691406 312.710938 253.160156 301.625 253.160156 301.625 L 253.128906 301.554688 C 253.804688 301.183594 254.492188 300.8125 255.179688 300.429688 Z M 255.179688 300.429688 " fill-opacity="1" fill-rule="nonzero"/></svg>