<svg xmlns="http://www.w3.org/2000/svg" xmlns:xlink="http://www.w3.org/1999/xlink" width="800" zoomAndPan="magnify" viewBox="0 0 600 449.999984" height="600" preserveAspectRatio="xMidYMid meet" version="1.0"><path fill="#4184a9" d="M 75 38.792969 L 75 287.070312 C 75 308.496094 134.039062 325.863281 206.898438 325.863281 C 220.625 325.863281 233.898438 325.226562 246.386719 324.164062 L 338.792969 178.691406 L 338.792969 38.792969 L 75 38.792969 " fill-opacity="1" fill-rule="nonzero"/><path fill="#35718a" d="M 338.792969 38.792969 C 338.792969 60.21875 279.753906 77.585938 206.898438 77.585938 C 134.070312 77.585938 75 60.21875 75 38.792969 C 75 17.367188 134.070312 0 206.898438 0 C 279.753906 0 338.792969 17.367188 338.792969 38.792969 " fill-opacity="1" fill-rule="nonzero"/><path fill="#6de08e" d="M 75 131.898438 C 75 153.324219 134.070312 170.691406 206.898438 170.691406 C 279.753906 170.691406 338.792969 153.324219 338.792969 131.898438 L 338.792969 100.863281 C 338.792969 122.289062 279.753906 139.65625 206.898438 139.65625 C 134.070312 139.65625 75 122.289062 75 100.863281 L 75 131.898438 " fill-opacity="1" fill-rule="nonzero"/><path fill="#6de08e" d="M 254.628906 261.21875 C 239.78125 262.855469 223.71875 263.792969 206.898438 263.792969 C 134.039062 263.792969 75 246.425781 75 225 L 75 193.964844 C 75 215.394531 134.039062 232.757812 206.898438 232.757812 C 230.929688 232.757812 253.539062 230.910156 272.9375 227.574219 L 254.628906 261.21875 " fill-opacity="1" fill-rule="nonzero"/><path fill="#35718a" d="M 525 310.34375 C 525 387.476562 462.476562 450 385.34375 450 C 308.214844 450 245.691406 387.476562 245.691406 310.34375 C 245.691406 233.214844 308.214844 170.691406 385.34375 170.691406 C 462.476562 170.691406 525 233.214844 525 310.34375 " fill-opacity="1" fill-rule="nonzero"/><path fill="#ffffff" d="M 315.515625 271.550781 C 324.0625 271.550781 331.035156 278.523438 331.035156 287.070312 C 331.035156 291.34375 334.519531 294.828125 338.792969 294.828125 C 343.066406 294.828125 346.550781 291.34375 346.550781 287.070312 C 346.550781 269.945312 332.640625 256.035156 315.515625 256.035156 C 298.394531 256.035156 284.484375 269.945312 284.484375 287.070312 C 284.484375 304.191406 298.394531 318.101562 315.515625 318.101562 C 324.0625 318.101562 331.035156 325.074219 331.035156 333.621094 C 331.035156 342.167969 324.0625 349.136719 315.515625 349.136719 C 306.96875 349.136719 300 342.167969 300 333.621094 C 300 329.347656 296.515625 325.863281 292.242188 325.863281 C 287.96875 325.863281 284.484375 329.347656 284.484375 333.621094 C 284.484375 350.746094 298.394531 364.65625 315.515625 364.65625 C 332.640625 364.65625 346.550781 350.746094 346.550781 333.621094 C 346.550781 316.496094 332.640625 302.585938 315.515625 302.585938 C 306.96875 302.585938 300 295.617188 300 287.070312 C 300 278.523438 306.96875 271.550781 315.515625 271.550781 " fill-opacity="1" fill-rule="nonzero"/><path fill="#ffffff" d="M 407.316406 329.316406 C 404.953125 325.742188 400.132812 324.800781 396.558594 327.164062 C 392.980469 329.527344 392.011719 334.347656 394.40625 337.925781 L 400.558594 347.136719 C 398.316406 348.378906 395.800781 349.136719 393.101562 349.136719 C 384.558594 349.136719 377.585938 342.167969 377.585938 333.621094 L 377.585938 287.070312 C 377.585938 278.523438 384.558594 271.550781 393.101562 271.550781 C 401.648438 271.550781 408.621094 278.523438 408.621094 287.070312 L 408.621094 331.285156 Z M 393.101562 256.035156 C 375.980469 256.035156 362.070312 269.945312 362.070312 287.070312 L 362.070312 333.621094 C 362.070312 350.746094 375.980469 364.65625 393.101562 364.65625 C 399.011719 364.65625 404.46875 362.925781 409.167969 360.046875 L 409.925781 361.199219 C 411.410156 363.441406 413.863281 364.65625 416.378906 364.65625 C 417.863281 364.65625 419.347656 364.230469 420.683594 363.351562 C 424.257812 360.988281 425.230469 356.167969 422.835938 352.59375 L 420.136719 348.5625 C 422.59375 344.105469 424.136719 339.074219 424.136719 333.621094 L 424.136719 287.070312 C 424.136719 269.945312 410.226562 256.035156 393.101562 256.035156 " fill-opacity="1" fill-rule="nonzero"/><path fill="#ffffff" d="M 478.449219 349.136719 L 455.171875 349.136719 L 455.171875 263.792969 C 455.171875 259.519531 451.6875 256.035156 447.414062 256.035156 C 443.140625 256.035156 439.65625 259.519531 439.65625 263.792969 L 439.65625 356.898438 C 439.65625 361.167969 443.140625 364.65625 447.414062 364.65625 L 478.449219 364.65625 C 482.722656 364.65625 486.207031 361.167969 486.207031 356.898438 C 486.207031 352.625 482.722656 349.136719 478.449219 349.136719 " fill-opacity="1" fill-rule="nonzero"/></svg>